<svg width="96" height="42" viewBox="0 0 96 42" fill="none" xmlns="http://www.w3.org/2000/svg">
<path d="M55.8445 32.8378V39.835H52.4186V33.1339C52.4186 31.9941 51.8709 31.2646 50.7744 31.2646C49.678 31.2646 48.9937 32.0618 48.9937 33.4067V39.8339H45.5677V33.1328C45.5677 31.9931 45.02 31.2635 43.9236 31.2635C42.8271 31.2635 42.1428 32.0607 42.1428 33.4056V39.8329H38.7168V28.4374H42.1428V29.4862C42.6682 28.7112 43.6725 28.1191 45.2033 28.1191C46.5508 28.1191 47.555 28.6668 48.1949 29.6237C48.8347 28.7123 49.8846 28.1191 51.5065 28.1191C54.1326 28.1191 55.8456 29.9884 55.8456 32.8368L55.8445 32.8378ZM68.0177 28.4384V39.8339H64.5917V38.7629C63.9751 39.6066 62.8331 40.1532 61.3267 40.1532C59.0205 40.1532 57.0564 38.5123 57.0564 35.4356V28.4384H60.4824V34.9344C60.4824 36.348 61.3733 37.0089 62.4687 37.0089C63.7251 37.0089 64.5927 36.2793 64.5927 34.6617V28.4395H68.0187L68.0177 28.4384ZM78.2945 36.4157C78.2945 39.0367 76.0105 40.1532 73.5443 40.1532C71.2604 40.1532 69.5251 39.2873 68.6342 37.4413L71.6025 35.7549C71.8992 36.6208 72.539 37.0998 73.5433 37.0998C74.3653 37.0998 74.7764 36.8492 74.7764 36.3935C74.7764 35.1396 69.1586 35.8004 69.1586 31.8577C69.1586 29.3731 71.2593 28.1202 73.6344 28.1202C75.484 28.1202 77.1282 28.9407 78.0879 30.5594L75.1652 32.1316C74.8452 31.5395 74.3886 31.1293 73.6354 31.1293C73.0411 31.1293 72.6767 31.3566 72.6767 31.7679C72.6767 33.0673 78.2945 32.2013 78.2945 36.4168V36.4157ZM79.0255 28.4384H82.4514V39.8339H79.0255V28.4384ZM83.4102 34.1362C83.4102 30.7402 85.9908 28.1191 89.4623 28.1191C91.6774 28.1191 93.6415 29.2822 94.6235 31.0362L91.6319 32.7681C91.2441 31.9698 90.421 31.4919 89.4167 31.4919C87.9326 31.4919 86.8361 32.5629 86.8361 34.1362C86.8361 35.7094 87.9326 36.7794 89.4167 36.7794C90.421 36.7794 91.2664 36.3005 91.6319 35.5033L94.6235 37.2129C93.6415 38.9902 91.7007 40.1532 89.4623 40.1532C85.9908 40.1532 83.4102 37.5322 83.4102 34.1362Z" fill="url(#paint0_linear_4355_446735)"/>
<path d="M28.0803 1.22679V25.9949H20.6351V23.6667C18.9973 25.5498 16.565 26.6885 13.2397 26.6885C6.73732 26.6885 1.37695 20.9918 1.37695 13.6108C1.37695 6.22989 6.73732 0.533203 13.2397 0.533203C16.565 0.533203 18.9973 1.6719 20.6351 3.55494V1.22679H28.0803ZM20.6351 13.6108C20.6351 9.89552 18.153 7.56736 14.7291 7.56736C11.3053 7.56736 8.82214 9.89552 8.82214 13.6108C8.82214 17.3262 11.3042 19.6543 14.7291 19.6543C18.154 19.6543 20.6351 17.3262 20.6351 13.6108Z" fill="white"/>
<path d="M56.1642 13.6117C56.1642 20.9927 50.8039 26.6894 44.3015 26.6894C40.9762 26.6894 38.5439 25.5507 36.9061 23.6676V39.8368H29.4609V1.22874H36.9061V3.55689C38.5439 1.67386 40.9762 0.535156 44.3015 0.535156C50.8039 0.535156 56.1642 6.23184 56.1642 13.6128V13.6117ZM48.7191 13.6117C48.7191 9.89642 46.237 7.56826 42.8121 7.56826C39.3871 7.56826 36.9061 9.89642 36.9061 13.6117C36.9061 17.3271 39.3882 19.6552 42.8121 19.6552C46.2359 19.6552 48.7191 17.3271 48.7191 13.6117Z" fill="white"/>
<path d="M94.6242 10.7868V25.9949H87.179V11.4318C87.179 8.95453 85.9883 7.36965 83.6058 7.36965C81.2233 7.36965 79.7349 9.10361 79.7349 12.026V25.9949H72.2897V11.4318C72.2897 8.95453 71.099 7.36965 68.7165 7.36965C66.334 7.36965 64.8456 9.10361 64.8456 12.026V25.9949H57.4004V1.22679H64.8456V3.50525C65.9876 1.82098 68.1709 0.533203 71.4962 0.533203C74.4243 0.533203 76.6077 1.7216 77.9986 3.80235C79.3885 1.82098 81.6714 0.533203 85.1959 0.533203C90.9037 0.533203 94.6263 4.59532 94.6263 10.7868H94.6242Z" fill="white"/>
<path d="M21.8064 39.7919C25.1998 39.7919 27.9507 37.0464 27.9507 33.6596C27.9507 30.2729 25.1998 27.5273 21.8064 27.5273C18.413 27.5273 15.6621 30.2729 15.6621 33.6596C15.6621 37.0464 18.413 39.7919 21.8064 39.7919Z" fill="#CC203C"/>
<path d="M25.4212 33.6588L19.3945 30.1855V37.132L25.4212 33.6588Z" fill="white"/>
<defs>
<linearGradient id="paint0_linear_4355_446735" x1="38.7168" y1="34.1372" x2="94.6224" y2="34.1372" gradientUnits="userSpaceOnUse">
<stop offset="0.66" stop-color="#CF4827"/>
<stop offset="0.69" stop-color="#CE422A"/>
<stop offset="0.79" stop-color="#CD2F34"/>
<stop offset="0.89" stop-color="#CC233A"/>
<stop offset="1" stop-color="#CC203C"/>
</linearGradient>
</defs>
</svg>
