<svg width="18" height="19" viewBox="0 0 18 19" fill="none" xmlns="http://www.w3.org/2000/svg">
<path d="M15.0937 11.6777V14.7389C15.0937 15.1449 14.9511 15.5342 14.6971 15.8212C14.4432 16.1083 14.0987 16.2695 13.7396 16.2695H4.26042C3.90127 16.2695 3.55683 16.1083 3.30288 15.8212C3.04892 15.5342 2.90625 15.1449 2.90625 14.7389V11.6777" stroke="white" stroke-width="1.6" stroke-linecap="round"/>
<path d="M9.01278 1.97949C8.853 1.9799 8.69964 2.04501 8.5852 2.16105C8.47076 2.27708 8.40422 2.43492 8.39968 2.60112L8.39968 10.3161L8.45033 11.3812L8.09225 10.9723L7.14902 9.91624C7.09627 9.85872 7.03284 9.81295 6.96258 9.78171C6.89232 9.75046 6.8167 9.7344 6.74029 9.73448C6.66817 9.72871 6.59569 9.73853 6.5274 9.76334C6.45911 9.78815 6.3965 9.8274 6.3435 9.87862C6.2905 9.92984 6.24827 9.99193 6.21946 10.061C6.19065 10.13 6.17588 10.2045 6.1761 10.2798C6.17549 10.3597 6.19213 10.4387 6.22478 10.5111C6.25743 10.5834 6.30525 10.6473 6.36474 10.6978L8.56911 12.8899C8.62374 12.9568 8.69175 13.0105 8.76838 13.0472C8.845 13.0839 8.92841 13.1028 9.01278 13.1025C9.09577 13.1021 9.17767 13.0828 9.25278 13.0461C9.3279 13.0094 9.39442 12.9561 9.44771 12.8899L11.6573 10.6978C11.7132 10.6449 11.7576 10.5803 11.7877 10.5083C11.8178 10.4362 11.8329 10.3583 11.832 10.2798C11.8321 10.2053 11.8176 10.1316 11.7893 10.0632C11.761 9.99487 11.7196 9.93323 11.6676 9.88214C11.6155 9.83106 11.554 9.7916 11.4867 9.7662C11.4195 9.74081 11.3479 9.73001 11.2765 9.73448C11.1988 9.73421 11.1218 9.75016 11.0501 9.78138C10.9784 9.8126 10.9135 9.85846 10.8591 9.91624L9.92108 10.9723L9.57173 11.3812L9.62239 10.3161L9.62239 2.60112C9.6183 2.43539 9.55239 2.27783 9.4386 2.1618C9.32481 2.04577 9.17209 1.98038 9.01278 1.97949Z" fill="white"/>
</svg>
