<svg width="19" height="19" viewBox="0 0 19 19" fill="none" xmlns="http://www.w3.org/2000/svg">
<path d="M5.86523 2.33398C6.39861 2.33815 6.92535 2.4553 7.41016 2.67773C7.89517 2.9003 8.32763 3.22311 8.67871 3.625L8.68848 3.63672L8.95117 3.9248L9.50879 4.53809L10.0635 3.9209L10.3213 3.63379H10.3223L10.3291 3.625C10.677 3.22637 11.1062 2.90645 11.5879 2.6875C12.0696 2.46854 12.5929 2.35547 13.1221 2.35547C13.6512 2.35549 14.1745 2.46853 14.6562 2.6875C15.1379 2.90647 15.5671 3.22635 15.915 3.625L15.9277 3.63965L15.9414 3.6543L16.0352 3.75195C16.7728 4.58819 17.1756 5.66766 17.165 6.7832V6.80273C17.1831 7.92113 16.7763 9.00453 16.0273 9.83496L9.80273 16.5352L9.7959 16.542C9.76009 16.5815 9.71669 16.6132 9.66797 16.6348C9.61899 16.6563 9.56523 16.6672 9.51172 16.667H9.51074C9.45145 16.6668 9.39305 16.654 9.33887 16.6299C9.2846 16.6057 9.23515 16.5705 9.19531 16.5264H9.19629L9.18945 16.5195L2.97754 9.82422C2.23214 8.98601 1.82522 7.90008 1.83594 6.77832V6.76758C1.82972 5.64772 2.23323 4.56394 2.96973 3.7207L3.03906 3.66211L3.08203 3.625L3.11914 3.58301C3.46147 3.19032 3.88407 2.87559 4.3584 2.66016C4.83171 2.44521 5.34543 2.33386 5.86523 2.33398Z" stroke="white" stroke-width="1.5"/>
</svg>
