<svg width="20" height="20" viewBox="0 0 20 20" fill="none" xmlns="http://www.w3.org/2000/svg">
<path d="M10.1729 1.66784C10.7127 1.64362 11.1729 2.14362 11.1729 2.66784V2.69225C11.1885 3.29997 11.1729 3.91267 11.1729 4.52428V17.6844C11.1727 18.2445 10.7126 18.6602 10.1729 18.6844C9.63317 18.7086 9.17302 18.2085 9.17285 17.6844V17.66C9.15723 17.0522 9.17285 16.4397 9.17285 15.828V2.66784C9.17285 2.10772 9.63306 1.69133 10.1729 1.66784ZM6.3623 4.09264C6.90215 4.06842 7.3623 4.56842 7.3623 5.09264V14.913C7.36216 15.473 6.90206 15.8887 6.3623 15.913C5.82256 15.9372 5.36245 15.4371 5.3623 14.913V5.09264C5.3623 4.52859 5.82247 4.11609 6.3623 4.09264ZM13.6357 4.09264C14.1756 4.06842 14.6357 4.56842 14.6357 5.09264V14.913C14.6356 15.473 14.1755 15.8887 13.6357 15.913C13.0961 15.9369 12.6359 15.437 12.6357 14.913V5.09264C12.6357 4.5287 13.096 4.11624 13.6357 4.09264ZM2.62695 5.78014C3.16679 5.75592 3.62695 6.25592 3.62695 6.78014V13.2245C3.6269 13.7846 3.16676 14.2003 2.62695 14.2245C2.08715 14.2487 1.62701 13.7487 1.62695 13.2245V6.78014C1.62695 6.22077 2.0832 5.80437 2.62695 5.78014ZM17.3701 5.78014C17.9098 5.75613 18.3701 6.25602 18.3701 6.78014V13.2245C18.3701 13.7845 17.9098 14.2001 17.3701 14.2245C16.8303 14.2487 16.3702 13.7487 16.3701 13.2245V6.78014C16.3701 6.22076 16.8303 5.80436 17.3701 5.78014Z" fill="white"/>
</svg>
