<svg width="19" height="19" viewBox="0 0 19 19" fill="none" xmlns="http://www.w3.org/2000/svg">
<path d="M9.49566 11.3792C9.66432 11.3788 9.8262 11.3137 9.947 11.1977C10.0678 11.0817 10.138 10.9238 10.1428 10.7576V3.83428L10.0894 2.76915L10.4673 3.17812L11.463 4.23416C11.5186 4.29168 11.5856 4.33744 11.6598 4.36869C11.7339 4.39993 11.8137 4.416 11.8944 4.41592C11.9705 4.42169 12.047 4.41186 12.1191 4.38706C12.1912 4.36225 12.2573 4.323 12.3132 4.27178C12.3692 4.22056 12.4138 4.15847 12.4442 4.08943C12.4746 4.0204 12.4902 3.9459 12.4899 3.87063C12.4906 3.7907 12.473 3.71165 12.4386 3.6393C12.4041 3.56695 12.3536 3.50314 12.2908 3.45258L9.96398 1.26052C9.90631 1.19363 9.83453 1.13994 9.75364 1.10321C9.67276 1.06648 9.58472 1.04759 9.49566 1.04786C9.40806 1.0483 9.32161 1.06755 9.24232 1.10428C9.16304 1.14101 9.09282 1.19432 9.03656 1.26052L6.7042 3.45258C6.64526 3.50547 6.59835 3.57007 6.56657 3.64213C6.53479 3.71419 6.51886 3.79206 6.51982 3.87063C6.51969 3.94508 6.53502 4.01876 6.56487 4.08715C6.59472 4.15553 6.63845 4.21717 6.69338 4.26825C6.74832 4.31934 6.81328 4.3588 6.88426 4.38419C6.95525 4.40959 7.03076 4.42039 7.10614 4.41592C7.18819 4.41618 7.26945 4.40024 7.34514 4.36902C7.42082 4.3378 7.4894 4.29194 7.5468 4.23416L8.5369 3.17812L8.90566 2.76915L8.85219 3.83428V10.7576C8.8565 10.9233 8.92607 11.0809 9.04618 11.1969C9.16629 11.313 9.3275 11.3784 9.49566 11.3792ZM5.4615 17.4163H13.5372C15.0767 17.4163 15.8327 16.6693 15.8327 15.1788V8.35545C15.8327 6.86318 15.0767 6.12704 13.5372 6.12704H11.6012V7.39938H13.5188C14.1585 7.39938 14.5365 7.74655 14.5365 8.4118V15.117C14.5365 15.7913 14.1585 16.1294 13.5188 16.1294H5.47994C4.8254 16.124 4.45665 15.7913 4.45665 15.117V8.41725C4.45665 7.752 4.8254 7.39938 5.47994 7.39938H7.40668V6.12704H5.4615C3.93118 6.12704 3.16602 6.86984 3.16602 8.35545V15.1788C3.16602 16.6717 3.93118 17.4175 5.4615 17.4163Z" fill="white"/>
</svg>
