<svg width="16" height="16" viewBox="112.5 1 18 18" fill="none" xmlns="http://www.w3.org/2000/svg">
<path d="M120.992 17.6543C125.377 17.6543 128.996 14.0334 128.996 9.6543C128.996 5.27519 125.369 1.6543 120.984 1.6543C116.608 1.6543 112.996 5.27519 112.996 9.6543C112.996 14.0334 116.615 17.6543 120.992 17.6543ZM120.992 16.0605C117.443 16.0605 114.605 13.2056 114.605 9.6543C114.605 6.10304 117.443 3.25584 120.984 3.25584C124.534 3.25584 127.388 6.10304 127.395 9.6543C127.403 13.2056 124.542 16.0605 120.992 16.0605ZM117.095 10.6292H120.984C121.34 10.6292 121.611 10.3584 121.611 10.0102V4.95024C121.611 4.60207 121.34 4.33128 120.984 4.33128C120.644 4.33128 120.374 4.60207 120.374 4.95024V9.39124H117.095C116.747 9.39124 116.476 9.66203 116.476 10.0102C116.476 10.3584 116.747 10.6292 117.095 10.6292Z" fill="white"/>
</svg>
