<svg width="36" height="28" viewBox="0 0 36 28" fill="none" xmlns="http://www.w3.org/2000/svg">
<g clip-path="url(#clip0_6914_733797)">
<path d="M23.5 0.5H12.5C5.59644 0.5 0 6.09644 0 13C0 19.9036 5.59644 25.5 12.5 25.5H23.5C30.4036 25.5 36 19.9036 36 13C36 6.09644 30.4036 0.5 23.5 0.5Z" fill="#B3B3B3"/>
<path d="M18.8346 13.6481C20.3955 13.6481 21.8096 14.1587 22.8471 14.8727C23.833 15.5521 24.668 16.5617 24.668 17.648C24.668 18.2442 24.4105 18.7383 24.0046 19.1056C23.623 19.4523 23.1246 19.6772 22.6113 19.8303C21.5855 20.1375 20.2346 20.2363 18.8346 20.2363C17.4346 20.2363 16.0838 20.1375 15.058 19.8303C14.5446 19.6772 14.0463 19.4523 13.6638 19.1056C13.2596 18.7392 13.0013 18.245 13.0013 17.6488C13.0013 16.5626 13.8363 15.5529 14.8221 14.8735C15.8596 14.1587 17.2738 13.6481 18.8346 13.6481ZM13.0013 14.4716C13.2996 14.4727 13.5863 14.5037 13.8613 14.5647C12.968 15.31 12.168 16.3839 12.168 17.648C12.168 17.979 12.2246 18.2879 12.3263 18.572C11.8463 18.5456 11.3846 18.4855 10.9921 18.3686C10.7046 18.2829 10.3896 18.147 10.1338 17.9156C9.98717 17.7858 9.86987 17.6269 9.78957 17.4492C9.70927 17.2715 9.66787 17.0791 9.66797 16.8846C9.66797 16.1393 10.223 15.5266 10.7571 15.1584C11.4179 14.7108 12.2002 14.4714 13.0013 14.4716ZM13.418 9.53043C13.9705 9.53043 14.5004 9.74743 14.8911 10.1335C15.2818 10.5196 15.5013 11.0432 15.5013 11.5893C15.5013 12.1353 15.2818 12.659 14.8911 13.0451C14.5004 13.4312 13.9705 13.6481 13.418 13.6481C12.8654 13.6481 12.3355 13.4312 11.9448 13.0451C11.5541 12.659 11.3346 12.1353 11.3346 11.5893C11.3346 11.0432 11.5541 10.5196 11.9448 10.1335C12.3355 9.74743 12.8654 9.53043 13.418 9.53043ZM18.8346 6.23633C19.7187 6.23633 20.5665 6.58343 21.1917 7.20123C21.8168 7.81893 22.168 8.65683 22.168 9.53043C22.168 10.4041 21.8168 11.242 21.1917 11.8597C20.5665 12.4775 19.7187 12.8246 18.8346 12.8246C17.9506 12.8246 17.1027 12.4775 16.4776 11.8597C15.8525 11.242 15.5013 10.4041 15.5013 9.53043C15.5013 8.65683 15.8525 7.81893 16.4776 7.20123C17.1027 6.58343 17.9506 6.23633 18.8346 6.23633Z" fill="white"/>
<path d="M29 28C31.7614 28 34 25.7614 34 23C34 20.2386 31.7614 18 29 18C26.2386 18 24 20.2386 24 23C24 25.7614 26.2386 28 29 28Z" fill="#00FFB7"/>
</g>
<defs>
<clipPath id="clip0_6914_733797">
<rect width="36" height="28" fill="white"/>
</clipPath>
</defs>
</svg>
