<svg width="20" height="20" viewBox="0 0 20 20" fill="none" xmlns="http://www.w3.org/2000/svg">
<path d="M3.93104 16.2799C3.65044 16.3626 3.43756 16.4205 3.28521 16.4544C3.18885 16.4759 3.11007 16.4902 3.03651 16.4961C2.95773 16.5026 2.88481 16.5019 2.79627 16.4843C2.69211 16.4642 2.59054 16.4251 2.48702 16.347C2.30994 16.2135 2.19796 16.0032 2.19796 15.7688C2.19796 15.5846 2.35746 15.0488 2.99874 13.0103C2.40239 12.0878 2.08337 11.0533 2.08337 9.9785C2.08337 6.36333 5.65754 3.5 10 3.5C14.3425 3.5 17.9167 6.36333 17.9167 9.9785C17.9167 13.5943 14.3425 16.4577 10 16.4577C8.60096 16.4577 7.25387 16.1608 6.06704 15.6055C5.13541 15.9101 4.42446 16.1354 3.93104 16.2799Z" stroke="white" stroke-width="1.5"/>
</svg>
