<svg width="18" height="18" viewBox="0 0 18 18" fill="none" xmlns="http://www.w3.org/2000/svg">
<path fill-rule="evenodd" clip-rule="evenodd" d="M11.3861 1.5H3.8861C3.1361 1.5 2.52246 2.11364 2.52246 2.86364V11.7273C2.52246 12.1023 2.82928 12.4091 3.20428 12.4091C3.57928 12.4091 3.8861 12.1023 3.8861 11.7273V3.54545C3.8861 3.17045 4.19292 2.86364 4.56792 2.86364H11.3861C11.7611 2.86364 12.0679 2.55682 12.0679 2.18182C12.0679 1.80682 11.7611 1.5 11.3861 1.5ZM14.1136 4.22754H6.61364C5.86364 4.22754 5.25 4.84118 5.25 5.59118V15.1366C5.25 15.8866 5.86364 16.5003 6.61364 16.5003H14.1136C14.8636 16.5003 15.4773 15.8866 15.4773 15.1366V5.59118C15.4773 4.84118 14.8636 4.22754 14.1136 4.22754ZM7.29412 15.1364H13.4305C13.8055 15.1364 14.1123 14.8296 14.1123 14.4546V6.27274C14.1123 5.89774 13.8055 5.59092 13.4305 5.59092H7.29412C6.91912 5.59092 6.6123 5.89774 6.6123 6.27274V14.4546C6.6123 14.8296 6.91912 15.1364 7.29412 15.1364Z" fill="white"/>
</svg>
