<svg width="18" height="19" viewBox="0 0 18 19" fill="none" xmlns="http://www.w3.org/2000/svg">
<path d="M14.7305 11.3965V14.3841C14.7305 14.7803 14.5912 15.1602 14.3434 15.4404C14.0955 15.7205 13.7594 15.8779 13.4089 15.8779H4.15755C3.80704 15.8779 3.47088 15.7205 3.22303 15.4404C2.97518 15.1602 2.83594 14.7803 2.83594 14.3841V11.3965" stroke="#ffffff" stroke-width="1.56154" stroke-linecap="round"/>
<path d="M8.79735 1.93144C8.6414 1.93184 8.49173 1.99539 8.38004 2.10863C8.26835 2.22188 8.20341 2.37592 8.19898 2.53813L8.19898 10.0677L8.24842 11.1072L7.89895 10.7081L6.97839 9.6774C6.92691 9.62127 6.865 9.5766 6.79643 9.54611C6.72786 9.51561 6.65405 9.49993 6.57948 9.50001C6.5091 9.49438 6.43836 9.50397 6.37171 9.52818C6.30506 9.55239 6.24395 9.5907 6.19223 9.64069C6.14051 9.69068 6.09929 9.75127 6.07117 9.81865C6.04305 9.88603 6.02865 9.95873 6.02885 10.0322C6.02826 10.1102 6.0445 10.1873 6.07636 10.258C6.10823 10.3286 6.15491 10.3908 6.21296 10.4402L8.36434 12.5796C8.41766 12.6448 8.48403 12.6972 8.55882 12.7331C8.63361 12.7689 8.71501 12.7874 8.79735 12.7871C8.87834 12.7867 8.95827 12.7679 9.03158 12.732C9.10489 12.6962 9.16981 12.6442 9.22182 12.5796L11.3783 10.4402C11.4328 10.3886 11.4762 10.3255 11.5056 10.2552C11.535 10.1849 11.5497 10.1089 11.5488 10.0322C11.5489 9.95953 11.5347 9.88762 11.5071 9.82088C11.4795 9.75414 11.4391 9.69399 11.3883 9.64413C11.3375 9.59427 11.2775 9.55576 11.2118 9.53098C11.1462 9.50619 11.0764 9.49565 11.0067 9.50001C10.9308 9.49975 10.8557 9.51532 10.7857 9.54579C10.7157 9.57625 10.6523 9.62101 10.5993 9.6774L9.68381 10.7081L9.34286 11.1072L9.3923 10.0677L9.3923 2.53813C9.38831 2.37638 9.32398 2.22261 9.21293 2.10937C9.10188 1.99612 8.95283 1.93231 8.79735 1.93144Z" fill="#ffffff"/>
</svg>
