<svg width="19" height="19" viewBox="0 0 19 19" fill="none" xmlns="http://www.w3.org/2000/svg">
<path d="M5.72656 2.0332C6.28163 2.0375 6.82945 2.15917 7.33398 2.39062C7.83888 2.62227 8.28887 2.95858 8.6543 3.37695L8.66113 3.38379L8.91699 3.66504L9.28027 4.06445L9.64062 3.66309L9.89258 3.38184L9.89746 3.37695C10.2599 2.96165 10.7072 2.62852 11.209 2.40039C11.7109 2.17226 12.2563 2.05371 12.8076 2.05371C13.3588 2.05377 13.9035 2.17231 14.4053 2.40039C14.9071 2.62852 15.3543 2.9616 15.7168 3.37695L15.7256 3.38574L15.7344 3.39551L15.8213 3.48535C16.5889 4.34864 17.0081 5.46682 16.9971 6.62207V6.63477C17.0156 7.78911 16.5951 8.90712 15.8213 9.76367L9.74609 16.3027L9.74219 16.3076C9.68418 16.3716 9.61318 16.4222 9.53418 16.457C9.45508 16.4919 9.36963 16.5101 9.2832 16.5098H9.28223C9.19031 16.5095 9.09959 16.4896 9.01562 16.4521C8.97363 16.4334 8.9335 16.4107 8.89648 16.3838L8.79395 16.292L8.79004 16.2871L2.72168 9.74512H2.7207C1.95531 8.88239 1.53784 7.7658 1.54883 6.6123V6.60449C1.54249 5.44787 1.96039 4.32903 2.72363 3.45996L2.72266 3.45898L2.72656 3.45605L2.80859 3.38672L2.83691 3.36328L2.86035 3.33594C3.2174 2.92634 3.65858 2.59775 4.15332 2.37305C4.64745 2.14862 5.18387 2.03285 5.72656 2.0332Z" fill="none" stroke="#ffffff" stroke-width="0.975962"/>
</svg>
