<svg width="20" height="21" viewBox="0 0 20 21" fill="none" xmlns="http://www.w3.org/2000/svg">
<g clip-path="url(#clip0_6283_194637)">
<path d="M14.833 7.00098C15.3853 7.00098 15.833 7.44869 15.833 8.00098V18.251C15.8327 18.803 15.3851 19.251 14.833 19.251H5.16699C4.61487 19.251 4.16726 18.803 4.16699 18.251V8.00098C4.16699 7.44869 4.61471 7.00098 5.16699 7.00098H14.833ZM10 13.5166C9.69375 13.2754 9.31823 13.126 8.90625 13.126C7.9 13.126 7.08301 13.9835 7.08301 15.04C7.08326 16.0964 7.90016 16.9541 8.90625 16.9541C9.91234 16.9541 10.7292 16.0964 10.7295 15.04V10.8291H12.917V9.29785H10V13.5166ZM15 6.12598H5V4.37598H15V6.12598ZM14.2676 3.44531H5.93457V1.69531H14.2676V3.44531Z" fill="#888888"/>
</g>
<defs>
<clipPath id="clip0_6283_194637">
<rect width="20" height="21" fill="white"/>
</clipPath>
</defs>
</svg>
