<svg width="22" height="23" viewBox="0 0 22 23" fill="none" xmlns="http://www.w3.org/2000/svg">
<path d="M16.6861 2.21134C16.5198 2.06095 16.2725 2.05977 16.104 2.20782L6.32628 10.7945C6.20939 10.8967 6.15095 11.0542 6.17006 11.2116C6.18804 11.3691 6.28245 11.5065 6.41956 11.577L9.34734 13.0692L5.21922 20.1848C5.10571 20.381 5.14392 20.6359 5.31138 20.7852C5.39567 20.8604 5.50019 20.898 5.6047 20.898C5.70697 20.898 5.81037 20.8615 5.89354 20.7875L15.6712 12.2008C15.7881 12.0986 15.8465 11.9411 15.8274 11.7837C15.8094 11.6263 15.715 11.4888 15.5779 11.4183L12.6501 9.92611L16.7783 2.81058C16.8918 2.61553 16.8536 2.36173 16.6861 2.21134V2.21134Z" fill="#888888"/>
</svg>
