<svg width="22" height="23" viewBox="0 0 22 23" fill="none" xmlns="http://www.w3.org/2000/svg">
<path d="M7.88414 18.9068L3.61662 14.6106C2.68264 13.6622 2.62517 12.6995 3.58788 11.7368L10.6717 4.58115C11.2321 4.02077 11.62 3.63281 12.4965 3.63281H15.3559C16.0456 3.63281 16.4479 3.90582 16.9077 4.36562L18.244 5.67318C18.7182 6.14735 18.8906 6.54967 18.8906 7.23938V9.99818C18.8906 10.9034 18.4883 11.277 17.9279 11.8374L10.7866 18.9356C9.80956 19.8983 8.84685 19.8408 7.88414 18.9068ZM13.5311 8.99237C13.9621 9.42343 14.6662 9.4378 15.1116 8.978C15.5571 8.53257 15.5571 7.8285 15.1116 7.39743C14.6806 6.952 13.9621 6.952 13.5311 7.39743C13.0856 7.84286 13.0856 8.5613 13.5311 8.99237Z" fill="#888888"/>
</svg>
