<svg width="16" height="16" viewBox="0 0 16 16" fill="none" xmlns="http://www.w3.org/2000/svg">
<path d="M13.9477 3.67723H6.89501L6.67156 3.17879C6.61182 3.03054 6.51002 2.90301 6.3787 2.8119C6.24738 2.72079 6.09227 2.67008 5.93249 2.66602H2.16265C1.93031 2.67932 1.71273 2.78418 1.55755 2.95761C1.40238 3.13104 1.32226 3.35891 1.33477 3.59129V12.4573C1.33994 12.6453 1.41771 12.824 1.55177 12.9559C1.68582 13.0878 1.86573 13.1627 2.05379 13.1649H13.9391C14.0348 13.1652 14.1296 13.1467 14.218 13.1102C14.3065 13.0738 14.3868 13.0202 14.4545 12.9526C14.5221 12.885 14.5757 12.8046 14.6121 12.7161C14.6485 12.6277 14.6671 12.5329 14.6667 12.4372V4.4163C14.6683 4.3205 14.6508 4.22536 14.6155 4.13631C14.5801 4.04727 14.5275 3.96608 14.4607 3.89742C14.3939 3.82875 14.3142 3.77394 14.2262 3.73616C14.1381 3.69837 14.0435 3.67835 13.9477 3.67723ZM10.768 9.0484H8.55076V11.2628H7.4622V9.0484H5.24785V7.95698H7.4622V5.74549H8.55076V7.95984H10.768V9.0484Z" fill="white"/>
</svg>
