<svg width="20" height="20" viewBox="0 0 20 20" fill="none" xmlns="http://www.w3.org/2000/svg">
<path d="M9.99174 17.6543C14.3765 17.6543 17.9956 14.0334 17.9956 9.6543C17.9956 5.27519 14.3687 1.6543 9.98401 1.6543C5.60701 1.6543 1.99561 5.27519 1.99561 9.6543C1.99561 14.0334 5.61475 17.6543 9.99174 17.6543ZM9.99174 16.0605C6.4422 16.0605 3.60411 13.2056 3.60411 9.6543C3.60411 6.10304 6.4422 3.25584 9.98401 3.25584C13.5335 3.25584 16.3871 6.10304 16.3948 9.6543C16.4026 13.2056 13.5413 16.0605 9.99174 16.0605ZM6.0942 10.6292H9.98401C10.3397 10.6292 10.6104 10.3584 10.6104 10.0102V4.95024C10.6104 4.60207 10.3397 4.33128 9.98401 4.33128C9.64374 4.33128 9.37308 4.60207 9.37308 4.95024V9.39124H6.0942C5.74621 9.39124 5.47555 9.66203 5.47555 10.0102C5.47555 10.3584 5.74621 10.6292 6.0942 10.6292Z" fill="white"/>
</svg>
