<svg width="34" height="32" viewBox="0 0 34 32" fill="none" xmlns="http://www.w3.org/2000/svg">
<g filter="url(#filter0_d_6276_661525)">
<path d="M11.9958 18.9996V22.9954C11.9958 23.8863 10.9186 24.3325 10.2887 23.7025L3.29289 16.7067C2.90237 16.3162 2.90237 15.683 3.29289 15.2925L10.2887 8.29671C10.9186 7.66675 11.9958 8.11291 11.9958 9.00382V12.9996H21.9958V9.002C21.9958 8.11136 23.0724 7.66507 23.7025 8.29452L30.7076 15.2921C31.0986 15.6827 31.0986 16.3165 30.7076 16.7071L23.7025 23.7047C23.0724 24.3341 21.9958 23.8879 21.9958 22.9972V18.9996H11.9958Z" fill="#12131A"/>
</g>
<path fill-rule="evenodd" clip-rule="evenodd" d="M23.9958 16.9996V20.5848L28.5859 15.9996L23.9958 11.4144V14.9996H9.99579V11.418L5.41421 15.9996L9.99579 20.5812V16.9996H23.9958ZM21.9958 9.002C21.9958 8.11136 23.0724 7.66507 23.7025 8.29452L30.7076 15.2921C31.0986 15.6827 31.0986 16.3165 30.7076 16.7071L23.7025 23.7047C23.0724 24.3341 21.9958 23.8879 21.9958 22.9972V18.9996H11.9958V22.9954C11.9958 23.8863 10.9186 24.3325 10.2887 23.7025L3.29289 16.7067C2.90237 16.3162 2.90237 15.683 3.29289 15.2925L10.2887 8.29671C10.9186 7.66675 11.9958 8.11291 11.9958 9.00382V12.9996H21.9958V9.002Z" fill="white"/>
<defs>
<filter id="filter0_d_6276_661525" x="0" y="6.5" width="34.0007" height="21.999" filterUnits="userSpaceOnUse" color-interpolation-filters="sRGB">
<feFlood flood-opacity="0" result="BackgroundImageFix"/>
<feColorMatrix in="SourceAlpha" type="matrix" values="0 0 0 0 0 0 0 0 0 0 0 0 0 0 0 0 0 0 127 0" result="hardAlpha"/>
<feOffset dy="1.5"/>
<feGaussianBlur stdDeviation="1.5"/>
<feComposite in2="hardAlpha" operator="out"/>
<feColorMatrix type="matrix" values="0 0 0 0 0.0705882 0 0 0 0 0.0745098 0 0 0 0 0.101961 0 0 0 0.25 0"/>
<feBlend mode="normal" in2="BackgroundImageFix" result="effect1_dropShadow_6276_661525"/>
<feBlend mode="normal" in="SourceGraphic" in2="effect1_dropShadow_6276_661525" result="shape"/>
</filter>
</defs>
</svg>
