<svg width="24" height="24" viewBox="0 0 24 25" fill="none" xmlns="http://www.w3.org/2000/svg"><g transform="translate(0 -561)">
<path d="M21.1937 584.358C20.9364 584.424 20.6525 584.345 20.4674 584.13L14.6863 577.425C13.8242 578.13 12.7978 578.664 11.6489 578.957C7.43425 580.032 3.13039 577.477 2.05537 573.263C0.980349 569.048 3.53488 564.744 7.74958 563.669C11.9643 562.594 16.2681 565.149 17.3432 569.363C17.9973 571.928 17.3078 574.525 15.7181 576.408L21.5622 583.186C21.8228 583.489 21.7888 583.945 21.4868 584.205C21.3994 584.281 21.2984 584.332 21.1937 584.358ZM8.10675 565.069C4.66409 565.947 2.57757 569.463 3.45567 572.906C4.33377 576.348 7.84913 578.435 11.2918 577.557C14.7344 576.678 16.821 573.163 15.9429 569.72C15.0648 566.278 11.5494 564.191 8.10675 565.069Z" fill="#CC203C"/>
<mask id="mask0_6283_661841" style="mask-type:luminance" maskUnits="userSpaceOnUse" x="7" y="568" width="7" height="7">
<path d="M13.5 571.464L7.5 568V574.928L13.5 571.464Z" fill="white"/>
</mask>
<g mask="url(#mask0_6283_661841)">
<path d="M7.59401 568H7.5V574.928H7.59401V568Z" fill="#CC203C"/>
<path d="M7.66664 568H7.59289V574.928H7.66664V568Z" fill="#CC203C"/>
<path d="M7.74096 568H7.66664V574.928H7.74096V568Z" fill="#CC203C"/>
<path d="M7.81527 568H7.74096V574.928H7.81527V568Z" fill="#CC203C"/>
<path d="M7.88959 568H7.81527V574.928H7.88959V568Z" fill="#CC203C"/>
<path d="M7.9639 568H7.88959V574.928H7.9639V568Z" fill="#CC203C"/>
<path d="M8.03512 568H7.96138V574.928H8.03512V568Z" fill="#CC203C"/>
<path d="M8.10944 568H8.03512V574.928H8.10944V568Z" fill="#CC203C"/>
<path d="M8.18376 568H8.10944V574.928H8.18376V568Z" fill="#CC203C"/>
<path d="M8.25807 568H8.18376V574.928H8.25807V568Z" fill="#CC203C"/>
<path d="M8.33239 568H8.25807V574.928H8.33239V568Z" fill="#CC203C"/>
<path d="M8.4067 568H8.33239V574.928H8.4067V568Z" fill="#CC203C"/>
<path d="M8.47792 568H8.40418V574.928H8.47792V568Z" fill="#CC203C"/>
<path d="M8.55224 568H8.47792V574.928H8.55224V568Z" fill="#CC203C"/>
<path d="M8.62655 568H8.55224V574.928H8.62655V568Z" fill="#CC203C"/>
<path d="M8.70087 568H8.62655V574.928H8.70087V568Z" fill="#CC203C"/>
<path d="M8.77519 568H8.70087V574.928H8.77519V568Z" fill="#CC203C"/>
<path d="M8.8495 568H8.77519V574.928H8.8495V568Z" fill="#CC203C"/>
<path d="M8.92382 568H8.8495V574.928H8.92382V568Z" fill="#CC203C"/>
<path d="M8.99813 568H8.92382V574.928H8.99813V568Z" fill="#CC203C"/>
<path d="M9.06935 568H8.99561V574.928H9.06935V568Z" fill="#CC203C"/>
<path d="M9.14367 568H9.06935V574.928H9.14367V568Z" fill="#CC203C"/>
<path d="M9.21798 568H9.14367V574.928H9.21798V568Z" fill="#CC203C"/>
<path d="M9.2923 568H9.21798V574.928H9.2923V568Z" fill="#CC203C"/>
<path d="M9.36662 568H9.2923V574.928H9.36662V568Z" fill="#CC203C"/>
<path d="M9.44093 568H9.36662V574.928H9.44093V568Z" fill="#CC203C"/>
<path d="M9.51525 568H9.44093V574.928H9.51525V568Z" fill="#CC203C"/>
<path d="M9.58647 568H9.51272V574.928H9.58647V568Z" fill="#CC203C"/>
<path d="M9.66078 568H9.58647V574.928H9.66078V568Z" fill="#CC203C"/>
<path d="M9.7351 568H9.66078V574.928H9.7351V568Z" fill="#CC203C"/>
<path d="M9.80942 568H9.7351V574.928H9.80942V568Z" fill="#CC203C"/>
<path d="M9.88373 568H9.80942V574.928H9.88373V568Z" fill="#CC203C"/>
<path d="M9.95495 568H9.8812V574.928H9.95495V568Z" fill="#CC203C"/>
<path d="M10.0293 568H9.95495V574.928H10.0293V568Z" fill="#CC203C"/>
<path d="M10.1036 568H10.0293V574.928H10.1036V568Z" fill="#CC203C"/>
<path d="M10.1779 568H10.1036V574.928H10.1779V568Z" fill="#CC203C"/>
<path d="M10.2522 568H10.1779V574.928H10.2522V568Z" fill="#CC203C"/>
<path d="M10.3265 568H10.2522V574.928H10.3265V568Z" fill="#CC203C"/>
<path d="M10.4008 568H10.3265V574.928H10.4008V568Z" fill="#CC203C"/>
<path d="M10.4721 568H10.3983V574.928H10.4721V568Z" fill="#CC203C"/>
<path d="M10.5464 568H10.4721V574.928H10.5464V568Z" fill="#CC203C"/>
<path d="M10.6207 568H10.5464V574.928H10.6207V568Z" fill="#CC203C"/>
<path d="M10.695 568H10.6207V574.928H10.695V568Z" fill="#CC203C"/>
<path d="M10.7693 568H10.695V574.928H10.7693V568Z" fill="#CC203C"/>
<path d="M10.8405 568H10.7668V574.928H10.8405V568Z" fill="#CC203C"/>
<path d="M10.9149 568H10.8405V574.928H10.9149V568Z" fill="#CC203C"/>
<path d="M10.9892 568H10.9149V574.928H10.9892V568Z" fill="#CC203C"/>
<path d="M11.0635 568H10.9892V574.928H11.0635V568Z" fill="#CC203C"/>
<path d="M11.1378 568H11.0635V574.928H11.1378V568Z" fill="#CC203C"/>
<path d="M11.2121 568H11.1378V574.928H11.2121V568Z" fill="#CC203C"/>
<path d="M11.2864 568H11.2121V574.928H11.2864V568Z" fill="#CC203C"/>
<path d="M11.3577 568H11.2839V574.928H11.3577V568Z" fill="#CC203C"/>
<path d="M11.432 568H11.3577V574.928H11.432V568Z" fill="#CC203C"/>
<path d="M11.5063 568H11.432V574.928H11.5063V568Z" fill="#CC203C"/>
<path d="M11.5806 568H11.5063V574.928H11.5806V568Z" fill="#CC203C"/>
<path d="M11.6549 568H11.5806V574.928H11.6549V568Z" fill="#CC203C"/>
<path d="M11.7292 568H11.6549V574.928H11.7292V568Z" fill="#CC203C"/>
<path d="M11.8005 568H11.7267V574.928H11.8005V568Z" fill="#CC203C"/>
<path d="M11.8748 568H11.8005V574.928H11.8748V568Z" fill="#CC203C"/>
<path d="M11.9491 568H11.8748V574.928H11.9491V568Z" fill="#CC203C"/>
<path d="M12.0234 568H11.9491V574.928H12.0234V568Z" fill="#CC203C"/>
<path d="M12.0977 568H12.0234V574.928H12.0977V568Z" fill="#CC203C"/>
<path d="M12.172 568H12.0977V574.928H12.172V568Z" fill="#CC203C"/>
<path d="M12.2433 568H12.1695V574.928H12.2433V568Z" fill="#CC203C"/>
<path d="M12.3176 568H12.2433V574.928H12.3176V568Z" fill="#CC203C"/>
<path d="M12.3919 568H12.3176V574.928H12.3919V568Z" fill="#CC203C"/>
<path d="M12.4662 568H12.3919V574.928H12.4662V568Z" fill="#CC203C"/>
<path d="M12.5405 568H12.4662V574.928H12.5405V568Z" fill="#CC203C"/>
<path d="M12.6148 568H12.5405V574.928H12.6148V568Z" fill="#CC203C"/>
<path d="M12.6892 568H12.6148V574.928H12.6892V568Z" fill="#CC203C"/>
<path d="M12.7635 568H12.6892V574.928H12.7635V568Z" fill="#CC203C"/>
<path d="M12.8347 568H12.7609V574.928H12.8347V568Z" fill="#CC203C"/>
<path d="M12.909 568H12.8347V574.928H12.909V568Z" fill="#CC203C"/>
<path d="M12.9833 568H12.909V574.928H12.9833V568Z" fill="#CC203C"/>
<path d="M13.0576 568H12.9833V574.928H13.0576V568Z" fill="#CC203C"/>
<path d="M13.132 568H13.0576V574.928H13.132V568Z" fill="#CC203C"/>
<path d="M13.2063 568H13.132V574.928H13.2063V568Z" fill="#CC203C"/>
<path d="M13.2775 568H13.2037V574.928H13.2775V568Z" fill="#CC203C"/>
<path d="M13.3518 568H13.2775V574.928H13.3518V568Z" fill="#CC203C"/>
<path d="M13.4261 568H13.3518V574.928H13.4261V568Z" fill="#CC203C"/>
<path d="M13.5004 568H13.4261V574.928H13.5004V568Z" fill="#CC203C"/>
</g>
</g></svg>
