<svg width="20" height="20" viewBox="0 0 20 20" fill="none" xmlns="http://www.w3.org/2000/svg">
<mask id="path-1-inside-1_6534_701718" fill="white">
<path d="M1.6665 5.8335H18.3332V16.6668C18.3332 17.1271 17.9601 17.5002 17.4998 17.5002H2.49984C2.0396 17.5002 1.6665 17.1271 1.6665 16.6668V5.8335Z"/>
</mask>
<path d="M1.6665 5.8335H18.3332H1.6665M19.1665 16.6668C19.1665 17.5873 18.4203 18.3335 17.4998 18.3335H2.49984C1.57936 18.3335 0.833171 17.5873 0.833171 16.6668H2.49984H17.4998H19.1665ZM2.49984 18.3335C1.57936 18.3335 0.833171 17.5873 0.833171 16.6668V5.8335H2.49984V16.6668V18.3335ZM19.1665 5.8335V16.6668C19.1665 17.5873 18.4203 18.3335 17.4998 18.3335V16.6668V5.8335H19.1665Z" fill="white" mask="url(#path-1-inside-1_6534_701718)"/>
<path d="M10.1941 1.29785L18.1111 5.46484C18.294 5.56135 18.3737 5.77385 18.3103 5.96387C18.3472 6.12429 18.2865 6.29815 18.1434 6.39844L11.3211 11.1748L10.6805 10.6045L17.2937 5.97559L9.9998 2.1377L2.70683 5.97559L9.31816 10.6045L8.67851 11.1738L1.85625 6.39844C1.71354 6.29812 1.65262 6.12414 1.68926 5.96387C1.62609 5.77387 1.70662 5.56127 1.88945 5.46484L9.80644 1.29785L10.0008 1.19629L10.1941 1.29785Z" fill="white"/>
<g clip-path="url(#clip0_6534_701718)">
<path d="M18.3332 17.5L9.99986 10L1.6665 17.5" stroke="white" stroke-width="0.833333" stroke-linecap="round"/>
</g>
<defs>
<clipPath id="clip0_6534_701718">
<path d="M1.6665 9.1665H18.3332V16.6665C18.3332 17.1267 17.9601 17.4998 17.4998 17.4998H2.49984C2.0396 17.4998 1.6665 17.1267 1.6665 16.6665V9.1665Z" fill="white"/>
</clipPath>
</defs>
</svg>
