<svg width="20" height="20" viewBox="0 0 20 20" fill="none" xmlns="http://www.w3.org/2000/svg">
<g clip-path="url(#clip0_6534_701721)">
<path d="M9.30104 9.52148L1.94557 16.1426C1.77452 16.2964 1.51158 16.2823 1.35768 16.1113C1.204 15.9403 1.21798 15.6773 1.38893 15.5234L8.59401 9.03809L9.30104 9.52148ZM18.6126 15.5234C18.7835 15.6773 18.7974 15.9403 18.6438 16.1113C18.4899 16.2824 18.226 16.2965 18.0549 16.1426L10.6985 9.52148L11.4065 9.03711L18.6126 15.5234Z" fill="white"/>
<path d="M2.5 4.5835H17.5C17.73 4.5835 17.9168 4.76954 17.917 4.99951V14.9995C17.917 15.2296 17.7301 15.4165 17.5 15.4165H2.5C2.27003 15.4163 2.08398 15.2295 2.08398 14.9995V4.99951C2.08416 4.76965 2.27014 4.58367 2.5 4.5835Z" stroke="white" stroke-width="0.833333"/>
<path d="M18.3337 4.16667L10.0003 10L1.66699 4.16667" stroke="white" stroke-width="0.833333" stroke-linecap="round"/>
</g>
<defs>
<clipPath id="clip0_6534_701721">
<path d="M1.66699 4.99984C1.66699 4.5396 2.04009 4.1665 2.50033 4.1665H17.5003C17.9606 4.1665 18.3337 4.5396 18.3337 4.99984V14.9998C18.3337 15.4601 17.9606 15.8332 17.5003 15.8332H2.50032C2.04009 15.8332 1.66699 15.4601 1.66699 14.9998V4.99984Z" fill="white"/>
</clipPath>
</defs>
</svg>
