<svg width="24" height="24" viewBox="0 0 24 24" fill="none" xmlns="http://www.w3.org/2000/svg">
<path d="M9.73633 2C14.009 2 17.4726 5.46367 17.4727 9.73633C17.4727 11.4807 16.8948 13.0898 15.9209 14.3838L22.4697 20.2852C22.7774 20.5623 22.8024 21.036 22.5254 21.3438C22.2481 21.6515 21.7735 21.6767 21.4658 21.3994L14.9062 15.4893C13.5359 16.7215 11.7243 17.4727 9.73633 17.4727C5.46367 17.4726 2 14.009 2 9.73633C2.00001 5.46368 5.46368 2.00001 9.73633 2ZM9.73633 3.5C6.2921 3.50001 3.50001 6.2921 3.5 9.73633C3.5 13.1806 6.2921 15.9726 9.73633 15.9727C13.1806 15.9727 15.9727 13.1806 15.9727 9.73633C15.9726 6.2921 13.1806 3.5 9.73633 3.5Z" fill="white"/>
</svg>
