<svg width="20" height="20" viewBox="0 0 20 20" fill="none" xmlns="http://www.w3.org/2000/svg">
  <path d="M10 1.66699C10.4034 1.66699 10.8004 1.69654 11.1885 1.75195L11.5518 3.8418C12.1595 3.99439 12.7328 4.23522 13.2568 4.54883L14.9922 3.32715C15.6291 3.80432 16.1946 4.37104 16.6719 5.00781L15.4512 6.74316C15.7649 7.26714 16.0055 7.84047 16.1582 8.44824L18.2471 8.81152C18.3025 9.19981 18.334 9.59638 18.334 10C18.334 10.4032 18.3024 10.7996 18.2471 11.1875L16.1582 11.5508C16.0056 12.1587 15.7649 12.7317 15.4512 13.2559L16.6729 14.9922C16.1958 15.6289 15.6297 16.1947 14.9932 16.6719L13.2578 15.4502C12.7335 15.7642 12.1599 16.0045 11.5518 16.1572L11.1885 18.2471C10.8003 18.3025 10.4035 18.334 10 18.334C9.59671 18.334 9.20048 18.3025 8.8125 18.2471L8.44922 16.1572C7.84109 16.0044 7.2674 15.7642 6.74316 15.4502L5.00684 16.6719C4.37052 16.1948 3.80406 15.6296 3.32715 14.9932L4.5498 13.2559C4.23618 12.7318 3.99535 12.1586 3.84277 11.5508L1.75195 11.1875C1.69663 10.7997 1.66699 10.4031 1.66699 10C1.66701 9.59646 1.6965 9.19974 1.75195 8.81152L3.84277 8.44824C3.99549 7.84049 4.23607 7.26713 4.5498 6.74316L3.32812 5.00684C3.80525 4.37033 4.37122 3.80418 5.00781 3.32715L6.74414 4.54883C7.26808 4.23519 7.84152 3.99445 8.44922 3.8418L8.8125 1.75195C9.20041 1.69659 9.59679 1.66701 10 1.66699ZM10 6.82617C8.24713 6.82636 6.82659 8.24719 6.82617 10C6.82617 11.7532 8.24688 13.1746 10 13.1748C11.7533 13.1748 13.1748 11.7533 13.1748 10C13.1744 8.24709 11.753 6.82621 10 6.82617Z" fill="white"/>
</svg>
