<svg width="24" height="24" viewBox="0 0 24 24" fill="none" xmlns="http://www.w3.org/2000/svg">
<g clip-path="url(#clip0_4744_652730)">
<path d="M20.2377 4.10938H9.90205C9.47937 4.10938 9.13672 4.45203 9.13672 4.87471V5.31992C9.13672 5.7426 9.47937 6.08525 9.90205 6.08525H20.2377C20.6604 6.08525 21.003 5.7426 21.003 5.31992V4.87471C21.003 4.45203 20.6604 4.10938 20.2377 4.10938Z" fill="white"/>
<path d="M18.3501 8.70703H9.90205C9.47937 8.70703 9.13672 9.04968 9.13672 9.47236V9.91758C9.13672 10.3403 9.47937 10.6829 9.90205 10.6829H18.3501C18.7728 10.6829 19.1155 10.3403 19.1155 9.91758V9.47236C19.1155 9.04968 18.7728 8.70703 18.3501 8.70703Z" fill="white"/>
<path d="M16.1682 13.3086H9.90205C9.47937 13.3086 9.13672 13.6512 9.13672 14.0739V14.5191C9.13672 14.9418 9.47937 15.2845 9.90205 15.2845H16.1682C16.5909 15.2845 16.9335 14.9418 16.9335 14.5191V14.0739C16.9335 13.6512 16.5909 13.3086 16.1682 13.3086Z" fill="white"/>
<path d="M13.9237 17.9102H9.90205C9.47937 17.9102 9.13672 18.2528 9.13672 18.6755V19.1207C9.13672 19.5434 9.47937 19.886 9.90205 19.886H13.9237C14.3464 19.886 14.689 19.5434 14.689 19.1207V18.6755C14.689 18.2528 14.3464 17.9102 13.9237 17.9102Z" fill="white"/>
<path d="M7.62186 15.8874H6.63208V4.8048C6.63208 4.62036 6.55883 4.44346 6.42842 4.31304C6.298 4.18263 6.12112 4.10938 5.93668 4.10938H5.08304C4.99189 4.10937 4.90162 4.12738 4.81745 4.16238C4.73329 4.19737 4.65687 4.24864 4.59258 4.31327C4.5283 4.37789 4.47743 4.4546 4.44288 4.53895C4.40834 4.6233 4.39081 4.71365 4.3913 4.8048V15.8874H3.40152C3.03357 15.8874 2.87168 16.4393 3.11085 16.7741L5.21918 19.7177C5.24921 19.768 5.29177 19.8097 5.34272 19.8386C5.39367 19.8675 5.45126 19.8827 5.50985 19.8827C5.56844 19.8827 5.62603 19.8675 5.67698 19.8386C5.72793 19.8097 5.77052 19.768 5.80054 19.7177L7.91256 16.7741C8.13701 16.454 7.97142 15.8874 7.62186 15.8874Z" fill="white"/>
</g>
<defs>
<clipPath id="clip0_4744_652730">
<rect width="18" height="15.7776" fill="white" transform="translate(3 4.10938)"/>
</clipPath>
</defs>
</svg>
