<svg width="14" height="14" viewBox="0 0 14 14" fill="none" xmlns="http://www.w3.org/2000/svg">
<mask id="path-1-outside-1_5376_175740" maskUnits="userSpaceOnUse" x="1.03125" y="-0.365234" width="12" height="15" fill="black">
<rect fill="white" x="1.03125" y="-0.365234" width="12" height="15"/>
<path d="M8.69922 0.642578H8.70703L8.73047 0.651367L8.75879 0.665039L8.78223 0.677734L8.80176 0.693359H8.80957C8.81801 0.699414 8.82591 0.706287 8.83301 0.713867L11.9541 3.83398L11.9756 3.85938L11.9912 3.88086V3.8877C11.997 3.89504 12.0018 3.90368 12.0059 3.91211L12.0186 3.94043V3.97266C12.0219 3.98181 12.0248 3.99135 12.0264 4.00098V4.06348H12.083V13.1025C12.083 13.1995 12.0441 13.2928 11.9756 13.3613C11.9071 13.4297 11.8145 13.4686 11.7178 13.4688H2.39746C2.30056 13.4688 2.20722 13.4298 2.13867 13.3613C2.07012 13.2928 2.03125 13.1995 2.03125 13.1025V0.999023C2.03167 0.902364 2.07018 0.809423 2.13867 0.741211C2.20718 0.672989 2.30077 0.634765 2.39746 0.634766H8.6709L8.69922 0.642578ZM2.70605 12.6865H11.2949V4.4375H8.53711C8.44072 4.43668 8.34816 4.39851 8.28027 4.33008C8.21237 4.26162 8.17481 4.16869 8.1748 4.07227V1.3125H2.70605V12.6865ZM9.15039 10.1143C9.26112 10.1207 9.36522 10.1694 9.44141 10.25C9.51757 10.3307 9.56049 10.4378 9.56055 10.5488C9.56055 10.6599 9.51762 10.7669 9.44141 10.8477C9.3652 10.9284 9.26123 10.9769 9.15039 10.9834H4.93164C4.87254 10.9869 4.81346 10.9782 4.75781 10.958C4.70215 10.9378 4.65053 10.9068 4.60742 10.8662C4.56434 10.8256 4.53033 10.776 4.50684 10.7217C4.48334 10.6672 4.4707 10.6081 4.4707 10.5488C4.47074 10.4896 4.48341 10.4313 4.50684 10.377C4.53032 10.3225 4.56429 10.2731 4.60742 10.2324C4.65057 10.1917 4.70207 10.1599 4.75781 10.1396C4.81342 10.1195 4.8726 10.1108 4.93164 10.1143H9.15039ZM9.80859 7.96973C9.86781 7.96626 9.92765 7.97484 9.9834 7.99512C10.039 8.01539 10.0897 8.04729 10.1328 8.08789C10.176 8.12858 10.2099 8.17797 10.2334 8.23242C10.2568 8.28675 10.2695 8.34513 10.2695 8.4043C10.2695 8.46362 10.2569 8.52268 10.2334 8.57715C10.2099 8.63157 10.1759 8.68101 10.1328 8.72168C10.0898 8.76219 10.0389 8.79321 9.9834 8.81348C9.92765 8.83375 9.86781 8.84331 9.80859 8.83984H4.16211C4.05122 8.83336 3.94633 8.78393 3.87012 8.70312C3.79412 8.62236 3.75195 8.51521 3.75195 8.4043C3.75206 8.29357 3.79425 8.18709 3.87012 8.10645C3.94633 8.02564 4.05122 7.97621 4.16211 7.96973H9.80859ZM9.15039 5.94434C9.26109 5.95081 9.36523 5.99953 9.44141 6.08008C9.51753 6.16079 9.56045 6.26797 9.56055 6.37891C9.56055 6.48998 9.51762 6.59693 9.44141 6.67773C9.36519 6.75853 9.26127 6.80699 9.15039 6.81348H4.93164C4.87253 6.81693 4.81347 6.80829 4.75781 6.78809C4.70212 6.76783 4.65055 6.73693 4.60742 6.69629C4.56431 6.65562 4.53033 6.60616 4.50684 6.55176C4.48334 6.49729 4.4707 6.43823 4.4707 6.37891C4.47075 6.31973 4.4834 6.26137 4.50684 6.20703C4.53033 6.15256 4.56427 6.1032 4.60742 6.0625C4.65057 6.02181 4.70208 5.99 4.75781 5.96973C4.8134 5.94959 4.87261 5.94088 4.93164 5.94434H9.15039ZM8.90137 3.70703H10.7793L8.90137 1.82812V3.70703Z"/>
</mask>
<path d="M8.69922 0.642578H8.70703L8.73047 0.651367L8.75879 0.665039L8.78223 0.677734L8.80176 0.693359H8.80957C8.81801 0.699414 8.82591 0.706287 8.83301 0.713867L11.9541 3.83398L11.9756 3.85938L11.9912 3.88086V3.8877C11.997 3.89504 12.0018 3.90368 12.0059 3.91211L12.0186 3.94043V3.97266C12.0219 3.98181 12.0248 3.99135 12.0264 4.00098V4.06348H12.083V13.1025C12.083 13.1995 12.0441 13.2928 11.9756 13.3613C11.9071 13.4297 11.8145 13.4686 11.7178 13.4688H2.39746C2.30056 13.4688 2.20722 13.4298 2.13867 13.3613C2.07012 13.2928 2.03125 13.1995 2.03125 13.1025V0.999023C2.03167 0.902364 2.07018 0.809423 2.13867 0.741211C2.20718 0.672989 2.30077 0.634765 2.39746 0.634766H8.6709L8.69922 0.642578ZM2.70605 12.6865H11.2949V4.4375H8.53711C8.44072 4.43668 8.34816 4.39851 8.28027 4.33008C8.21237 4.26162 8.17481 4.16869 8.1748 4.07227V1.3125H2.70605V12.6865ZM9.15039 10.1143C9.26112 10.1207 9.36522 10.1694 9.44141 10.25C9.51757 10.3307 9.56049 10.4378 9.56055 10.5488C9.56055 10.6599 9.51762 10.7669 9.44141 10.8477C9.3652 10.9284 9.26123 10.9769 9.15039 10.9834H4.93164C4.87254 10.9869 4.81346 10.9782 4.75781 10.958C4.70215 10.9378 4.65053 10.9068 4.60742 10.8662C4.56434 10.8256 4.53033 10.776 4.50684 10.7217C4.48334 10.6672 4.4707 10.6081 4.4707 10.5488C4.47074 10.4896 4.48341 10.4313 4.50684 10.377C4.53032 10.3225 4.56429 10.2731 4.60742 10.2324C4.65057 10.1917 4.70207 10.1599 4.75781 10.1396C4.81342 10.1195 4.8726 10.1108 4.93164 10.1143H9.15039ZM9.80859 7.96973C9.86781 7.96626 9.92765 7.97484 9.9834 7.99512C10.039 8.01539 10.0897 8.04729 10.1328 8.08789C10.176 8.12858 10.2099 8.17797 10.2334 8.23242C10.2568 8.28675 10.2695 8.34513 10.2695 8.4043C10.2695 8.46362 10.2569 8.52268 10.2334 8.57715C10.2099 8.63157 10.1759 8.68101 10.1328 8.72168C10.0898 8.76219 10.0389 8.79321 9.9834 8.81348C9.92765 8.83375 9.86781 8.84331 9.80859 8.83984H4.16211C4.05122 8.83336 3.94633 8.78393 3.87012 8.70312C3.79412 8.62236 3.75195 8.51521 3.75195 8.4043C3.75206 8.29357 3.79425 8.18709 3.87012 8.10645C3.94633 8.02564 4.05122 7.97621 4.16211 7.96973H9.80859ZM9.15039 5.94434C9.26109 5.95081 9.36523 5.99953 9.44141 6.08008C9.51753 6.16079 9.56045 6.26797 9.56055 6.37891C9.56055 6.48998 9.51762 6.59693 9.44141 6.67773C9.36519 6.75853 9.26127 6.80699 9.15039 6.81348H4.93164C4.87253 6.81693 4.81347 6.80829 4.75781 6.78809C4.70212 6.76783 4.65055 6.73693 4.60742 6.69629C4.56431 6.65562 4.53033 6.60616 4.50684 6.55176C4.48334 6.49729 4.4707 6.43823 4.4707 6.37891C4.47075 6.31973 4.4834 6.26137 4.50684 6.20703C4.53033 6.15256 4.56427 6.1032 4.60742 6.0625C4.65057 6.02181 4.70208 5.99 4.75781 5.96973C4.8134 5.94959 4.87261 5.94088 4.93164 5.94434H9.15039ZM8.90137 3.70703H10.7793L8.90137 1.82812V3.70703Z" fill="#888888"/>
<path d="M8.69922 0.642578L8.64603 0.835377L8.67214 0.842578H8.69922V0.642578ZM8.70703 0.642578L8.77726 0.455312L8.7433 0.442578H8.70703V0.642578ZM8.73047 0.651367L8.81742 0.471257L8.80922 0.467298L8.80069 0.464101L8.73047 0.651367ZM8.75879 0.665039L8.85415 0.488989L8.84574 0.484929L8.75879 0.665039ZM8.78223 0.677734L8.90717 0.521561L8.8932 0.510392L8.87748 0.501876L8.78223 0.677734ZM8.80176 0.693359L8.67682 0.849533L8.7316 0.893359H8.80176V0.693359ZM8.80957 0.693359L8.9262 0.530884L8.87392 0.493359H8.80957V0.693359ZM8.83301 0.713867L8.68693 0.850629L8.69161 0.855311L8.83301 0.713867ZM11.9541 3.83398L12.1068 3.7048L12.1014 3.69843L12.0955 3.69254L11.9541 3.83398ZM11.9756 3.85938L12.1373 3.74174L12.133 3.7358L12.1283 3.73019L11.9756 3.85938ZM11.9912 3.88086H12.1912V3.81582L12.153 3.76323L11.9912 3.88086ZM11.9912 3.8877H11.7912V3.9571L11.8342 4.01158L11.9912 3.8877ZM12.0059 3.91211L12.1884 3.83027L12.1861 3.82535L12.0059 3.91211ZM12.0186 3.94043H12.2186V3.89765L12.2011 3.85862L12.0186 3.94043ZM12.0186 3.97266H11.8186V4.00812L11.8308 4.04143L12.0186 3.97266ZM12.0264 4.00098H12.2264V3.98458L12.2237 3.9684L12.0264 4.00098ZM12.0264 4.06348H11.8264V4.26348H12.0264V4.06348ZM12.083 4.06348H12.283V3.86348H12.083V4.06348ZM12.083 13.1025H11.883H12.083ZM11.9756 13.3613L12.1169 13.5028L12.117 13.5027L11.9756 13.3613ZM11.7178 13.4688V13.6687H11.718L11.7178 13.4688ZM2.13867 13.3613L1.99725 13.5027L1.99731 13.5028L2.13867 13.3613ZM2.03125 0.999023L1.83125 0.998156V0.999023H2.03125ZM2.13867 0.741211L1.99755 0.59949L1.99754 0.599502L2.13867 0.741211ZM2.39746 0.634766L2.39746 0.834766H2.39746V0.634766ZM8.6709 0.634766L8.72408 0.441967L8.69798 0.434766H8.6709V0.634766ZM2.70605 12.6865H2.50605V12.8865H2.70605V12.6865ZM11.2949 12.6865V12.8865H11.4949V12.6865H11.2949ZM11.2949 4.4375H11.4949V4.2375H11.2949V4.4375ZM8.53711 4.4375L8.53541 4.6375H8.53711V4.4375ZM8.28027 4.33008L8.13828 4.47092L8.13828 4.47093L8.28027 4.33008ZM8.1748 4.07227H7.9748V4.07228L8.1748 4.07227ZM8.1748 1.3125H8.3748V1.1125H8.1748V1.3125ZM2.70605 1.3125V1.1125H2.50605V1.3125H2.70605ZM9.15039 10.1143L9.16209 9.91426H9.15039V10.1143ZM9.44141 10.25L9.5869 10.1128L9.58675 10.1126L9.44141 10.25ZM9.56055 10.5488H9.76055V10.5487L9.56055 10.5488ZM9.44141 10.8477L9.58686 10.9849L9.5869 10.9849L9.44141 10.8477ZM9.15039 10.9834V11.1837L9.16207 11.1831L9.15039 10.9834ZM4.93164 10.9834V10.7831L4.91996 10.7837L4.93164 10.9834ZM4.75781 10.958L4.68944 11.146L4.6896 11.146L4.75781 10.958ZM4.60742 10.8662L4.47019 11.0117L4.47028 11.0118L4.60742 10.8662ZM4.50684 10.7217L4.3232 10.8009L4.32325 10.801L4.50684 10.7217ZM4.4707 10.5488L4.2707 10.5487V10.5488H4.4707ZM4.50684 10.377L4.3232 10.2977L4.32317 10.2978L4.50684 10.377ZM4.60742 10.2324L4.47019 10.0869L4.47017 10.087L4.60742 10.2324ZM4.75781 10.1396L4.68967 9.95162L4.68944 9.9517L4.75781 10.1396ZM4.93164 10.1143L4.91994 10.3143H4.93164V10.1143ZM9.80859 7.96973V8.17007L9.82027 8.16939L9.80859 7.96973ZM9.9834 7.99512L10.0519 7.80721L10.0518 7.80717L9.9834 7.99512ZM10.1328 8.08789L10.27 7.9424L10.27 7.94237L10.1328 8.08789ZM10.2334 8.23242L10.417 8.15319L10.417 8.15318L10.2334 8.23242ZM10.2695 8.4043H10.4695V8.4041L10.2695 8.4043ZM10.2334 8.57715L10.417 8.65643L10.417 8.65638L10.2334 8.57715ZM10.1328 8.72168L10.27 8.86722L10.27 8.86717L10.1328 8.72168ZM9.9834 8.81348L10.0518 9.00143L10.052 9.00134L9.9834 8.81348ZM9.80859 8.83984L9.82029 8.63984H9.80859V8.83984ZM4.16211 8.83984L4.15041 9.03984H4.16211V8.83984ZM3.87012 8.70312L3.72447 8.84019L3.72463 8.84035L3.87012 8.70312ZM3.75195 8.4043L3.55195 8.4041V8.4043H3.75195ZM3.87012 8.10645L3.72463 7.96922L3.72445 7.9694L3.87012 8.10645ZM4.16211 7.96973V7.76938L4.15043 7.77007L4.16211 7.96973ZM9.15039 5.94434L9.16209 5.74434H9.15039V5.94434ZM9.44141 6.08008L9.5869 5.94285L9.58672 5.94266L9.44141 6.08008ZM9.56055 6.37891H9.76055L9.76055 6.37873L9.56055 6.37891ZM9.44141 6.67773L9.58689 6.81497L9.5869 6.81496L9.44141 6.67773ZM9.15039 6.81348V7.01382L9.16207 7.01314L9.15039 6.81348ZM4.93164 6.81348V6.61313L4.91996 6.61382L4.93164 6.81348ZM4.75781 6.78809L4.68944 6.97604L4.68958 6.97609L4.75781 6.78809ZM4.60742 6.69629L4.47019 6.84178L4.47025 6.84184L4.60742 6.69629ZM4.50684 6.55176L4.3232 6.63099L4.32323 6.63105L4.50684 6.55176ZM4.4707 6.37891L4.2707 6.37873V6.37891H4.4707ZM4.50684 6.20703L4.3232 6.1278L4.32319 6.12782L4.50684 6.20703ZM4.60742 6.0625L4.4702 5.917L4.47019 5.91701L4.60742 6.0625ZM4.75781 5.96973L4.68969 5.78169L4.68944 5.78177L4.75781 5.96973ZM4.93164 5.94434L4.91994 6.14434H4.93164V5.94434ZM8.90137 3.70703H8.70137V3.90703H8.90137V3.70703ZM10.7793 3.70703V3.90703H11.262L10.9208 3.56565L10.7793 3.70703ZM8.90137 1.82812L9.04283 1.68674L8.70137 1.3451V1.82812H8.90137ZM8.69922 0.642578V0.842578H8.70703V0.642578V0.442578H8.69922V0.642578ZM8.70703 0.642578L8.63681 0.829844L8.66024 0.838633L8.73047 0.651367L8.80069 0.464101L8.77726 0.455312L8.70703 0.642578ZM8.73047 0.651367L8.64352 0.831478L8.67184 0.845149L8.75879 0.665039L8.84574 0.484929L8.81742 0.471257L8.73047 0.651367ZM8.75879 0.665039L8.66353 0.840897L8.68697 0.853593L8.78223 0.677734L8.87748 0.501876L8.85405 0.489181L8.75879 0.665039ZM8.78223 0.677734L8.65729 0.833908L8.67682 0.849533L8.80176 0.693359L8.9267 0.537186L8.90717 0.521561L8.78223 0.677734ZM8.80176 0.693359V0.893359H8.80957V0.693359V0.493359H8.80176V0.693359ZM8.80957 0.693359L8.69294 0.855835C8.69131 0.854659 8.68928 0.85298 8.68701 0.850554L8.83301 0.713867L8.97901 0.577181C8.96255 0.559594 8.9447 0.544169 8.9262 0.530884L8.80957 0.693359ZM8.83301 0.713867L8.69161 0.855311L11.8127 3.97543L11.9541 3.83398L12.0955 3.69254L8.97441 0.572424L8.83301 0.713867ZM11.9541 3.83398L11.8014 3.96317L11.8229 3.98856L11.9756 3.85938L12.1283 3.73019L12.1068 3.7048L11.9541 3.83398ZM11.9756 3.85938L11.8138 3.97701L11.8295 3.99849L11.9912 3.88086L12.153 3.76323L12.1373 3.74174L11.9756 3.85938ZM11.9912 3.88086H11.7912V3.8877H11.9912H12.1912V3.88086H11.9912ZM11.9912 3.8877L11.8342 4.01158C11.8302 4.00656 11.8279 4.00269 11.8268 4.0009C11.8257 3.99905 11.8253 3.99819 11.8257 3.99886L12.0059 3.91211L12.1861 3.82535C12.1791 3.81095 12.167 3.78757 12.1482 3.76381L11.9912 3.8877ZM12.0059 3.91211L11.8234 3.99392L11.8361 4.02224L12.0186 3.94043L12.2011 3.85862L12.1884 3.8303L12.0059 3.91211ZM12.0186 3.94043H11.8186V3.97266H12.0186H12.2186V3.94043H12.0186ZM12.0186 3.97266L11.8308 4.04143C11.8316 4.04371 11.8302 4.0405 11.829 4.03356L12.0264 4.00098L12.2237 3.9684C12.2194 3.9422 12.2122 3.91992 12.2064 3.90389L12.0186 3.97266ZM12.0264 4.00098H11.8264V4.06348H12.0264H12.2264V4.00098H12.0264ZM12.0264 4.06348V4.26348H12.083V4.06348V3.86348H12.0264V4.06348ZM12.083 4.06348H11.883V13.1025H12.083H12.283V4.06348H12.083ZM12.083 13.1025H11.883C11.883 13.1461 11.8654 13.1886 11.8342 13.2199L11.9756 13.3613L12.117 13.5027C12.2228 13.3969 12.283 13.2529 12.283 13.1025H12.083ZM11.9756 13.3613L11.8342 13.2198C11.8027 13.2513 11.7606 13.2687 11.7175 13.2688L11.7178 13.4688L11.718 13.6687C11.8684 13.6686 12.0116 13.6081 12.1169 13.5028L11.9756 13.3613ZM11.7178 13.4688V13.2688H2.39746V13.4688V13.6687H11.7178V13.4688ZM2.39746 13.4688V13.2688C2.35398 13.2688 2.31137 13.2512 2.28003 13.2198L2.13867 13.3613L1.99731 13.5028C2.10307 13.6085 2.24714 13.6687 2.39746 13.6687V13.4688ZM2.13867 13.3613L2.28009 13.2199C2.24882 13.1886 2.23125 13.1461 2.23125 13.1025H2.03125H1.83125C1.83125 13.2529 1.89141 13.3969 1.99725 13.5027L2.13867 13.3613ZM2.03125 13.1025H2.23125V0.999023H2.03125H1.83125V13.1025H2.03125ZM2.03125 0.999023L2.23125 0.999891C2.23144 0.955649 2.24911 0.913486 2.2798 0.88292L2.13867 0.741211L1.99754 0.599502C1.89125 0.70536 1.8319 0.849079 1.83125 0.998156L2.03125 0.999023ZM2.13867 0.741211L2.27979 0.882932C2.3104 0.852454 2.35307 0.834765 2.39746 0.834766L2.39746 0.634766L2.39746 0.434766C2.24848 0.434764 2.10397 0.493524 1.99755 0.59949L2.13867 0.741211ZM2.39746 0.634766V0.834766H8.6709V0.634766V0.434766H2.39746V0.634766ZM8.6709 0.634766L8.61771 0.827564L8.64603 0.835377L8.69922 0.642578L8.7524 0.44978L8.72408 0.441967L8.6709 0.634766ZM2.70605 12.6865V12.8865H11.2949V12.6865V12.4865H2.70605V12.6865ZM11.2949 12.6865H11.4949V4.4375H11.2949H11.0949V12.6865H11.2949ZM11.2949 4.4375V4.2375H8.53711V4.4375V4.6375H11.2949V4.4375ZM8.53711 4.4375L8.53881 4.23751C8.49395 4.23713 8.45217 4.21938 8.42227 4.18923L8.28027 4.33008L8.13828 4.47093C8.24414 4.57765 8.3875 4.63624 8.53541 4.63749L8.53711 4.4375ZM8.28027 4.33008L8.42227 4.18924C8.39222 4.15894 8.37481 4.11693 8.3748 4.07225L8.1748 4.07227L7.9748 4.07228C7.97482 4.22045 8.03251 4.36429 8.13828 4.47092L8.28027 4.33008ZM8.1748 4.07227H8.3748V1.3125H8.1748H7.9748V4.07227H8.1748ZM8.1748 1.3125V1.1125H2.70605V1.3125V1.5125H8.1748V1.3125ZM2.70605 1.3125H2.50605V12.6865H2.70605H2.90605V1.3125H2.70605ZM9.15039 10.1143L9.13871 10.3139C9.19839 10.3174 9.25474 10.3437 9.29606 10.3874L9.44141 10.25L9.58675 10.1126C9.4757 9.99513 9.32386 9.92406 9.16207 9.9146L9.15039 10.1143ZM9.44141 10.25L9.29591 10.3872C9.33739 10.4312 9.36051 10.4894 9.36055 10.5489L9.56055 10.5488L9.76055 10.5487C9.76046 10.3863 9.69775 10.2303 9.5869 10.1128L9.44141 10.25ZM9.56055 10.5488H9.36055C9.36055 10.6083 9.33749 10.6663 9.29591 10.7104L9.44141 10.8477L9.5869 10.9849C9.69775 10.8674 9.76055 10.7115 9.76055 10.5488H9.56055ZM9.44141 10.8477L9.29596 10.7104C9.25473 10.7541 9.19861 10.7802 9.13871 10.7837L9.15039 10.9834L9.16207 11.1831C9.32386 11.1736 9.47567 11.1027 9.58686 10.9849L9.44141 10.8477ZM9.15039 10.9834V10.7834H4.93164V10.9834V11.1834H9.15039V10.9834ZM4.93164 10.9834L4.91996 10.7837C4.8881 10.7856 4.8562 10.7809 4.82602 10.77L4.75781 10.958L4.6896 11.146C4.77072 11.1754 4.85698 11.1881 4.94332 11.1831L4.93164 10.9834ZM4.75781 10.958L4.82618 10.7701C4.79447 10.7585 4.76665 10.7414 4.74456 10.7206L4.60742 10.8662L4.47028 11.0118C4.53442 11.0722 4.60984 11.117 4.68944 11.146L4.75781 10.958ZM4.60742 10.8662L4.74465 10.7207C4.72233 10.6997 4.70366 10.673 4.69042 10.6423L4.50684 10.7217L4.32325 10.801C4.357 10.8791 4.40636 10.9515 4.47019 11.0117L4.60742 10.8662ZM4.50684 10.7217L4.69047 10.6425C4.67738 10.6121 4.6707 10.5799 4.6707 10.5488H4.4707H4.2707C4.2707 10.6364 4.2893 10.7223 4.3232 10.8009L4.50684 10.7217ZM4.4707 10.5488L4.6707 10.5489C4.67072 10.5183 4.67727 10.4868 4.69051 10.4561L4.50684 10.377L4.32317 10.2978C4.28955 10.3758 4.27075 10.461 4.2707 10.5487L4.4707 10.5488ZM4.50684 10.377L4.69047 10.4562C4.70364 10.4257 4.7222 10.3991 4.74468 10.3779L4.60742 10.2324L4.47017 10.087C4.40639 10.1471 4.35701 10.2194 4.3232 10.2977L4.50684 10.377ZM4.60742 10.2324L4.74465 10.3779C4.76805 10.3558 4.79612 10.3385 4.82618 10.3276L4.75781 10.1396L4.68944 9.9517C4.60801 9.98132 4.5331 10.0276 4.47019 10.0869L4.60742 10.2324ZM4.75781 10.1396L4.82596 10.3277C4.85618 10.3167 4.88821 10.3121 4.91996 10.3139L4.93164 10.1143L4.94332 9.9146C4.85698 9.90955 4.77065 9.92227 4.68967 9.95162L4.75781 10.1396ZM4.93164 10.1143V10.3143H9.15039V10.1143V9.91426H4.93164V10.1143ZM9.80859 7.96973L9.82027 8.16939C9.85269 8.16749 9.88526 8.17224 9.91503 8.18307L9.9834 7.99512L10.0518 7.80717C9.97004 7.77744 9.88294 7.76504 9.79691 7.77007L9.80859 7.96973ZM9.9834 7.99512L9.91491 8.18302C9.94387 8.19358 9.97146 8.21064 9.99562 8.23342L10.1328 8.08789L10.27 7.94237C10.208 7.88394 10.1341 7.83719 10.0519 7.80721L9.9834 7.99512ZM10.1328 8.08789L9.99558 8.23338C10.018 8.25455 10.0366 8.28109 10.0498 8.31167L10.2334 8.23242L10.417 8.15318C10.3832 8.07485 10.3339 8.00261 10.27 7.9424L10.1328 8.08789ZM10.2334 8.23242L10.0498 8.31165C10.0629 8.34218 10.0695 8.37373 10.0695 8.4045L10.2695 8.4043L10.4695 8.4041C10.4694 8.31652 10.4507 8.23133 10.417 8.15319L10.2334 8.23242ZM10.2695 8.4043H10.0695C10.0695 8.4354 10.0629 8.46756 10.0498 8.49792L10.2334 8.57715L10.417 8.65638C10.4509 8.5778 10.4695 8.49184 10.4695 8.4043H10.2695ZM10.2334 8.57715L10.0498 8.49787C10.0366 8.52846 10.018 8.55505 9.99558 8.57619L10.1328 8.72168L10.27 8.86717C10.3339 8.80696 10.3832 8.73468 10.417 8.65643L10.2334 8.57715ZM10.1328 8.72168L9.99564 8.57613C9.97301 8.59746 9.94557 8.61437 9.91478 8.62562L9.9834 8.81348L10.052 9.00134C10.1322 8.97205 10.2066 8.92692 10.27 8.86722L10.1328 8.72168ZM9.9834 8.81348L9.91503 8.62552C9.88315 8.63712 9.8505 8.64195 9.82027 8.64019L9.80859 8.83984L9.79691 9.0395C9.88512 9.04466 9.97215 9.03039 10.0518 9.00143L9.9834 8.81348ZM9.80859 8.83984V8.63984H4.16211V8.83984V9.03984H9.80859V8.83984ZM4.16211 8.83984L4.17379 8.64019C4.11442 8.63671 4.05722 8.61001 4.01561 8.5659L3.87012 8.70312L3.72463 8.84035C3.83545 8.95785 3.98803 9.03 4.15043 9.0395L4.16211 8.83984ZM3.87012 8.70312L4.01577 8.56606C3.97495 8.52269 3.95195 8.46467 3.95195 8.4043H3.75195H3.55195C3.55195 8.56574 3.61328 8.72204 3.72447 8.84019L3.87012 8.70312ZM3.75195 8.4043L3.95195 8.4045C3.95201 8.34452 3.97485 8.28701 4.01579 8.24349L3.87012 8.10645L3.72445 7.9694C3.61365 8.08718 3.55212 8.24262 3.55195 8.4041L3.75195 8.4043ZM3.87012 8.10645L4.01561 8.24368C4.05722 8.19956 4.11442 8.17286 4.17379 8.16939L4.16211 7.96973L4.15043 7.77007C3.98803 7.77957 3.83545 7.85172 3.72463 7.96922L3.87012 8.10645ZM4.16211 7.96973V8.16973H9.80859V7.96973V7.76973H4.16211V7.96973ZM9.15039 5.94434L9.13871 6.14399C9.19831 6.14748 9.25474 6.17377 9.29609 6.2175L9.44141 6.08008L9.58672 5.94266C9.47571 5.82528 9.32386 5.75414 9.16207 5.74468L9.15039 5.94434ZM9.44141 6.08008L9.29591 6.21731C9.33732 6.26121 9.3605 6.31946 9.36055 6.37908L9.56055 6.37891L9.76055 6.37873C9.76041 6.21647 9.69775 6.06037 9.5869 5.94285L9.44141 6.08008ZM9.56055 6.37891H9.36055C9.36055 6.43842 9.33749 6.49642 9.29591 6.5405L9.44141 6.67773L9.5869 6.81496C9.69775 6.69744 9.76055 6.54155 9.76055 6.37891H9.56055ZM9.44141 6.67773L9.29592 6.5405C9.25473 6.58416 9.19868 6.61031 9.13871 6.61382L9.15039 6.81348L9.16207 7.01314C9.32386 7.00367 9.47566 6.9329 9.58689 6.81497L9.44141 6.67773ZM9.15039 6.81348V6.61348H4.93164V6.81348V7.01348H9.15039V6.81348ZM4.93164 6.81348L4.91996 6.61382C4.88807 6.61568 4.85621 6.61103 4.82605 6.60009L4.75781 6.78809L4.68958 6.97609C4.77074 7.00554 4.85698 7.01819 4.94332 7.01314L4.93164 6.81348ZM4.75781 6.78809L4.82618 6.60013C4.7944 6.58857 4.76666 6.57154 4.74459 6.55074L4.60742 6.69629L4.47025 6.84184C4.53444 6.90233 4.60984 6.94708 4.68944 6.97604L4.75781 6.78809ZM4.60742 6.69629L4.74465 6.5508C4.72226 6.52968 4.70366 6.50306 4.69044 6.47246L4.50684 6.55176L4.32323 6.63105C4.35701 6.70927 4.40636 6.78157 4.47019 6.84178L4.60742 6.69629ZM4.50684 6.55176L4.69047 6.47253C4.67738 6.44217 4.6707 6.41001 4.6707 6.37891H4.4707H4.2707C4.2707 6.46645 4.2893 6.55241 4.3232 6.63099L4.50684 6.55176ZM4.4707 6.37891L4.6707 6.37908C4.67073 6.34835 4.67729 6.31682 4.69048 6.28625L4.50684 6.20703L4.32319 6.12782C4.2895 6.20593 4.27078 6.2911 4.2707 6.37873L4.4707 6.37891ZM4.50684 6.20703L4.69047 6.28626C4.70366 6.25569 4.72219 6.22918 4.74465 6.20799L4.60742 6.0625L4.47019 5.91701C4.40635 5.97722 4.35701 6.04943 4.3232 6.1278L4.50684 6.20703ZM4.60742 6.0625L4.74464 6.208C4.76804 6.18593 4.79614 6.16861 4.82618 6.15768L4.75781 5.96973L4.68944 5.78177C4.60801 5.8114 4.5331 5.85768 4.4702 5.917L4.60742 6.0625ZM4.75781 5.96973L4.82593 6.15777C4.85617 6.14681 4.88824 6.14214 4.91996 6.14399L4.93164 5.94434L4.94332 5.74468C4.85699 5.73963 4.77063 5.75236 4.68969 5.78169L4.75781 5.96973ZM4.93164 5.94434V6.14434H9.15039V5.94434V5.74434H4.93164V5.94434ZM8.90137 3.70703V3.90703H10.7793V3.70703V3.50703H8.90137V3.70703ZM10.7793 3.70703L10.9208 3.56565L9.04283 1.68674L8.90137 1.82812L8.75991 1.96951L10.6378 3.84842L10.7793 3.70703ZM8.90137 1.82812H8.70137V3.70703H8.90137H9.10137V1.82812H8.90137Z" fill="#888888" mask="url(#path-1-outside-1_5376_175740)"/>
</svg>
