<svg width="19" height="19" viewBox="0 0 19 19" fill="none" xmlns="http://www.w3.org/2000/svg">
<path d="M9.26733 11.1065C9.43194 11.1061 9.58992 11.0425 9.70782 10.9293C9.82572 10.816 9.89426 10.662 9.89894 10.4998V3.74288L9.84676 2.70336L10.2156 3.1025L11.1873 4.13315C11.2417 4.18929 11.307 4.23395 11.3794 4.26445C11.4518 4.29494 11.5297 4.31062 11.6084 4.31054C11.6827 4.31617 11.7574 4.30658 11.8277 4.28237C11.8981 4.25816 11.9626 4.21985 12.0172 4.16986C12.0718 4.11987 12.1153 4.05928 12.145 3.9919C12.1746 3.92453 12.1899 3.85182 12.1896 3.77836C12.1903 3.70036 12.1731 3.62321 12.1395 3.55259C12.1058 3.48198 12.0566 3.41971 11.9953 3.37036L9.72439 1.231C9.66811 1.16571 9.59805 1.11331 9.51911 1.07747C9.44017 1.04162 9.35425 1.02318 9.26733 1.02345C9.18184 1.02388 9.09747 1.04266 9.02008 1.07851C8.9427 1.11435 8.87418 1.16639 8.81927 1.231L6.54298 3.37036C6.48545 3.42198 6.43967 3.48503 6.40866 3.55535C6.37764 3.62568 6.36209 3.70168 6.36303 3.77836C6.3629 3.85102 6.37786 3.92293 6.40699 3.98967C6.43612 4.05641 6.47881 4.11657 6.53242 4.16643C6.58603 4.21628 6.64943 4.25479 6.71871 4.27958C6.78799 4.30436 6.86169 4.3149 6.93526 4.31054C7.01533 4.3108 7.09464 4.29524 7.16851 4.26477C7.24237 4.2343 7.3093 4.18955 7.36532 4.13315L8.33162 3.1025L8.69151 2.70336L8.63933 3.74288V10.4998C8.64353 10.6615 8.71144 10.8153 8.82866 10.9286C8.94588 11.0418 9.10321 11.1056 9.26733 11.1065ZM5.33015 16.9984H13.2117C14.7143 16.9984 15.452 16.2693 15.452 14.8147V8.15537C15.452 6.69897 14.7143 5.98053 13.2117 5.98053H11.3223V7.22228H13.1937C13.8181 7.22228 14.187 7.5611 14.187 8.21036V14.7544C14.187 15.4125 13.8181 15.7425 13.1937 15.7425H5.34815C4.70934 15.7371 4.34945 15.4125 4.34945 14.7544V8.21569C4.34945 7.56643 4.70934 7.22228 5.34815 7.22228H7.22856V5.98053H5.33015C3.83661 5.98053 3.08984 6.70548 3.08984 8.15537V14.8147C3.08984 16.2717 3.83661 16.9996 5.33015 16.9984Z" fill="#ffffff"/>
</svg>
