<svg width="24" height="25" viewBox="0 0 24 25" fill="none" xmlns="http://www.w3.org/2000/svg">
<path d="M21.1705 22.55H2.78446C2.32644 22.55 1.95508 22.1749 1.95508 21.7123V2.97627C1.95508 2.51362 2.32644 2.13851 2.78446 2.13851H6.91751V0.837763C6.91751 0.375113 7.28887 0 7.74689 0C8.20491 0 8.57627 0.375113 8.57627 0.837763V2.13851H15.5319V0.837763C15.5319 0.375113 15.9033 0 16.3613 0C16.8193 0 17.1907 0.375113 17.1907 0.837763V2.13851H21.1702C21.6282 2.13851 21.9996 2.51362 21.9996 2.97627V21.7119C21.9996 22.1746 21.6282 22.5497 21.1702 22.5497L21.1705 22.55ZM3.61384 20.8742H20.3408V3.81403H17.191V5.14374C17.191 5.60639 16.8196 5.9815 16.3616 5.9815C15.9036 5.9815 15.5322 5.60639 15.5322 5.14374V3.81403H8.5766V5.14374C8.5766 5.60639 8.20524 5.9815 7.74722 5.9815C7.2892 5.9815 6.91784 5.60639 6.91784 5.14374V3.81403H3.61449V20.8742H3.61384Z" fill="white"/>
<mask id="mask0_13_23" style="mask-type:luminance" maskUnits="userSpaceOnUse" x="13" y="13" width="5" height="6">
<path d="M17.9658 16.3838L13.6601 13.8725V18.8947L17.9658 16.3838Z" fill="white"/>
</mask>
<g mask="url(#mask0_13_23)">
<path fill-rule="evenodd" clip-rule="evenodd" d="M17.9707 13.1167V19.1714H12.9766V13.1167H17.9707Z" fill="url(#paint0_linear_13_23)"/>
</g>
<path d="M8.49447 12.6777C9.87536 12.6777 10.9948 11.5469 10.9948 10.1521C10.9948 8.75722 9.87536 7.62646 8.49447 7.62646C7.11358 7.62646 5.99414 8.75722 5.99414 10.1521C5.99414 11.5469 7.11358 12.6777 8.49447 12.6777Z" fill="url(#paint1_linear_13_23)"/>
<path d="M8.49447 18.9062C9.87536 18.9062 10.9948 17.7754 10.9948 16.3806C10.9948 14.9857 9.87536 13.855 8.49447 13.855C7.11358 13.855 5.99414 14.9857 5.99414 16.3806C5.99414 17.7754 7.11358 18.9062 8.49447 18.9062Z" fill="url(#paint2_linear_13_23)"/>
<path d="M15.4671 12.6777C16.848 12.6777 17.9675 11.5469 17.9675 10.1521C17.9675 8.75722 16.848 7.62646 15.4671 7.62646C14.0862 7.62646 12.9668 8.75722 12.9668 10.1521C12.9668 11.5469 14.0862 12.6777 15.4671 12.6777Z" fill="url(#paint3_linear_13_23)"/>
<defs>
<linearGradient id="paint0_linear_13_23" x1="17.6294" y1="16.3224" x2="13.261" y2="16.3224" gradientUnits="userSpaceOnUse">
<stop stop-color="#E52D30"/>
<stop offset="1" stop-color="#CC1F3C"/>
</linearGradient>
<linearGradient id="paint1_linear_13_23" x1="10.653" y1="10.3009" x2="6.27891" y2="10.3009" gradientUnits="userSpaceOnUse">
<stop stop-color="#E52D30"/>
<stop offset="1" stop-color="#CC1F3C"/>
</linearGradient>
<linearGradient id="paint2_linear_13_23" x1="10.653" y1="16.5294" x2="6.27891" y2="16.5294" gradientUnits="userSpaceOnUse">
<stop stop-color="#E52D30"/>
<stop offset="1" stop-color="#CC1F3C"/>
</linearGradient>
<linearGradient id="paint3_linear_13_23" x1="17.6257" y1="10.3009" x2="13.2516" y2="10.3009" gradientUnits="userSpaceOnUse">
<stop stop-color="#E52D30"/>
<stop offset="1" stop-color="#CC1F3C"/>
</linearGradient>
</defs>
</svg>
