<svg width="22" height="22" viewBox="0 0 22 22" fill="none" xmlns="http://www.w3.org/2000/svg">
<path d="M21.0894 2.72361H0.910563C0.407774 2.72361 0 2.31909 0 1.8203C0 1.32152 0.407774 0.916992 0.910563 0.916992H21.0894C21.5922 0.916992 22 1.32152 22 1.8203C22 2.31909 21.5922 2.72361 21.0894 2.72361Z" fill="white"/>
<path d="M8.14468 8.65525H0.910563C0.407774 8.65525 0 8.25073 0 7.75194C0 7.25316 0.407774 6.84863 0.910563 6.84863H8.14468C8.64747 6.84863 9.05525 7.25316 9.05525 7.75194C9.05525 8.25073 8.64747 8.65525 8.14468 8.65525Z" fill="white"/>
<path d="M8.14468 20.518H0.910563C0.407774 20.518 0 20.1135 0 19.6147C0 19.116 0.407774 18.7114 0.910563 18.7114H8.14468C8.64747 18.7114 9.05525 19.116 9.05525 19.6147C9.05525 20.1135 8.64747 20.518 8.14468 20.518Z" fill="white"/>
<path d="M8.14468 14.5864H0.910563C0.407774 14.5864 0 14.1819 0 13.6831C0 13.1843 0.407774 12.7798 0.910563 12.7798H8.14468C8.64747 12.7798 9.05525 13.1843 9.05525 13.6831C9.05525 14.1819 8.64747 14.5864 8.14468 14.5864Z" fill="white"/>
<mask id="mask0_13_35" style="mask-type:luminance" maskUnits="userSpaceOnUse" x="12" y="8" width="10" height="11">
<path d="M21.0907 13.3953L12.1074 8.25V18.5402L21.0907 13.3953Z" fill="white"/>
</mask>
<g mask="url(#mask0_13_35)">
<path d="M21.9993 6.36182H9.16602V21.0285H21.9993V6.36182Z" fill="url(#paint0_linear_13_35)"/>
</g>
<defs>
<linearGradient id="paint0_linear_13_35" x1="21.1222" y1="14.1273" x2="9.89684" y2="14.1273" gradientUnits="userSpaceOnUse">
<stop stop-color="#E52D30"/>
<stop offset="1" stop-color="#CC1F3C"/>
</linearGradient>
</defs>
</svg>
