<svg width="140" height="19" viewBox="0 0 140 19" fill="none" xmlns="http://www.w3.org/2000/svg">
<path d="M5.72583 2.03378C6.2809 2.03808 6.82872 2.15975 7.33325 2.3912C7.83814 2.62285 8.28813 2.95916 8.65356 3.37753L8.6604 3.38437L8.91626 3.66562L9.27954 4.06503L9.63989 3.66367L9.89185 3.38242L9.89673 3.37753C10.2591 2.96223 10.7065 2.6291 11.2083 2.40097C11.7101 2.17284 12.2556 2.05429 12.8069 2.05429C13.358 2.05434 13.9028 2.17289 14.4045 2.40097C14.9064 2.6291 15.3536 2.96218 15.7161 3.37753L15.7249 3.38632L15.7336 3.39609L15.8206 3.48593C16.5881 4.34922 17.0074 5.4674 16.9963 6.62265V6.63535C17.0148 7.78969 16.5944 8.9077 15.8206 9.76425L9.74536 16.3033L9.74146 16.3082C9.68344 16.3721 9.61244 16.4228 9.53345 16.4576C9.45434 16.4925 9.3689 16.5107 9.28247 16.5103H9.28149C9.18958 16.5101 9.09886 16.4902 9.01489 16.4527C8.97289 16.434 8.93277 16.4112 8.89575 16.3844L8.79321 16.2926L8.78931 16.2877L2.72095 9.7457H2.71997C1.95458 8.88297 1.53711 7.76638 1.5481 6.61288V6.60507C1.54175 5.44845 1.95966 4.32961 2.7229 3.46054L2.72192 3.45956L2.72583 3.45663L2.80786 3.3873L2.83618 3.36386L2.85962 3.33652C3.21667 2.92692 3.65785 2.59833 4.15259 2.37363C4.64672 2.1492 5.18314 2.03343 5.72583 2.03378Z" fill="#CC1E3C" stroke="#CC1E3C" stroke-width="0.975962"/>
<path d="M39.5228 11.106C39.6874 11.1057 39.8454 11.0421 39.9633 10.9289C40.0812 10.8156 40.1498 10.6616 40.1544 10.4994V3.74246L40.1022 2.70293L40.4711 3.10207L41.4428 4.13272C41.4972 4.18886 41.5625 4.23353 41.6349 4.26402C41.7073 4.29451 41.7852 4.3102 41.8639 4.31012C41.9382 4.31575 42.0129 4.30616 42.0832 4.28195C42.1536 4.25773 42.2181 4.21943 42.2727 4.16944C42.3273 4.11945 42.3708 4.05886 42.4005 3.99148C42.4301 3.9241 42.4453 3.85139 42.4451 3.77794C42.4457 3.69993 42.4286 3.62278 42.395 3.55217C42.3613 3.48156 42.3121 3.41928 42.2508 3.36993L39.9799 1.23057C39.9236 1.16528 39.8535 1.11289 39.7746 1.07704C39.6957 1.04119 39.6097 1.02276 39.5228 1.02302C39.4373 1.02345 39.353 1.04224 39.2756 1.07808C39.1982 1.11393 39.1297 1.16596 39.0748 1.23057L36.7985 3.36993C36.7409 3.42155 36.6952 3.4846 36.6641 3.55492C36.6331 3.62525 36.6176 3.70126 36.6185 3.77794C36.6184 3.85059 36.6334 3.92251 36.6625 3.98925C36.6916 4.05599 36.7343 4.11614 36.7879 4.166C36.8415 4.21586 36.9049 4.25437 36.9742 4.27915C37.0435 4.30394 37.1172 4.31447 37.1907 4.31012C37.2708 4.31037 37.3501 4.29481 37.424 4.26434C37.4979 4.23387 37.5648 4.18912 37.6208 4.13272L38.5871 3.10207L38.947 2.70293L38.8948 3.74246V10.4994C38.899 10.6611 38.9669 10.8149 39.0842 10.9281C39.2014 11.0414 39.3587 11.1052 39.5228 11.106ZM35.5856 16.998H43.4672C44.9697 16.998 45.7075 16.2689 45.7075 14.8143V8.15494C45.7075 6.69855 44.9697 5.9801 43.4672 5.9801H41.5778V7.22185H43.4492C44.0736 7.22185 44.4425 7.56068 44.4425 8.20994V14.754C44.4425 15.4121 44.0736 15.742 43.4492 15.742H35.6036C34.9648 15.7367 34.6049 15.4121 34.6049 14.754V8.21526C34.6049 7.566 34.9648 7.22185 35.6036 7.22185H37.4841V5.9801H35.5856C34.0921 5.9801 33.3453 6.70505 33.3453 8.15494V14.8143C33.3453 16.2713 34.0921 16.9992 35.5856 16.998Z" fill="white"/>
<path d="M70.2693 2.3179V9.27163M70.2693 16.2254V9.27163M70.2693 9.27163H77.589M70.2693 9.27163H62.9496" stroke="white" stroke-width="1.46394" stroke-linecap="round" stroke-linejoin="round"/>
<path d="M106.471 11.3964V14.384C106.471 14.7802 106.332 15.1601 106.084 15.4403C105.836 15.7204 105.5 15.8778 105.15 15.8778H95.8984C95.5479 15.8778 95.2117 15.7204 94.9639 15.4403C94.716 15.1601 94.5768 14.7802 94.5768 14.384V11.3964" stroke="white" stroke-width="1.56154" stroke-linecap="round"/>
<path d="M100.537 1.93159C100.382 1.93199 100.232 1.99554 100.12 2.10879C100.008 2.22203 99.9435 2.37607 99.9391 2.53828L99.9391 10.0678L99.9885 11.1073L99.6391 10.7082L98.7185 9.67756C98.667 9.62142 98.6051 9.57675 98.5365 9.54626C98.468 9.51577 98.3942 9.50008 98.3196 9.50016C98.2492 9.49453 98.1785 9.50412 98.1118 9.52833C98.0452 9.55254 97.9841 9.59085 97.9323 9.64084C97.8806 9.69083 97.8394 9.75142 97.8113 9.8188C97.7832 9.88618 97.7688 9.95889 97.769 10.0323C97.7684 10.1103 97.7846 10.1875 97.8165 10.2581C97.8483 10.3287 97.895 10.391 97.9531 10.4403L100.104 12.5797C100.158 12.645 100.224 12.6974 100.299 12.7332C100.374 12.7691 100.455 12.7875 100.537 12.7873C100.618 12.7868 100.698 12.768 100.772 12.7322C100.845 12.6964 100.91 12.6443 100.962 12.5797L103.118 10.4403C103.173 10.3887 103.216 10.3257 103.246 10.2554C103.275 10.185 103.29 10.109 103.289 10.0323C103.289 9.95969 103.275 9.88777 103.247 9.82103C103.22 9.75429 103.179 9.69414 103.128 9.64428C103.078 9.59442 103.018 9.55591 102.952 9.53113C102.886 9.50634 102.816 9.4958 102.747 9.50016C102.671 9.49991 102.596 9.51547 102.526 9.54594C102.456 9.57641 102.392 9.62116 102.339 9.67756L101.424 10.7082L101.083 11.1073L101.132 10.0678L101.132 2.53828C101.128 2.37654 101.064 2.22276 100.953 2.10952C100.842 1.99628 100.693 1.93246 100.537 1.93159Z" fill="white"/>
<path d="M124.679 3.86319L129.803 9.27164M129.803 9.27164L134.927 14.6801M129.803 9.27164L134.927 3.86319M129.803 9.27164L124.679 14.6801" stroke="white" stroke-width="1.95192" stroke-linecap="square" stroke-linejoin="round"/>
</svg>
