<svg width="161" height="20" viewBox="0 0 161 20" fill="none" xmlns="http://www.w3.org/2000/svg">
<path d="M9.49566 11.8783C9.66432 11.8779 9.8262 11.8127 9.947 11.6967C10.0678 11.5807 10.138 11.4228 10.1428 11.2566V4.3333L10.0894 3.26817L10.4673 3.67713L11.463 4.73318C11.5186 4.79069 11.5856 4.83646 11.6598 4.86771C11.7339 4.89895 11.8137 4.91502 11.8944 4.91494C11.9705 4.92071 12.047 4.91088 12.1191 4.88607C12.1912 4.86127 12.2573 4.82202 12.3132 4.77079C12.3692 4.71957 12.4138 4.65749 12.4442 4.58845C12.4746 4.51941 12.4902 4.44492 12.4899 4.36965C12.4906 4.28972 12.473 4.21067 12.4386 4.13832C12.4041 4.06597 12.3536 4.00216 12.2908 3.9516L9.96398 1.75954C9.90631 1.69264 9.83453 1.63896 9.75364 1.60223C9.67276 1.5655 9.58472 1.54661 9.49566 1.54688C9.40806 1.54732 9.32161 1.56657 9.24232 1.6033C9.16304 1.64002 9.09282 1.69334 9.03656 1.75954L6.7042 3.9516C6.64526 4.00449 6.59835 4.06909 6.56657 4.14115C6.53479 4.2132 6.51886 4.29108 6.51982 4.36965C6.51969 4.4441 6.53502 4.51778 6.56487 4.58617C6.59472 4.65455 6.63845 4.71618 6.69338 4.76727C6.74831 4.81836 6.81328 4.85782 6.88426 4.88321C6.95525 4.90861 7.03076 4.9194 7.10614 4.91494C7.18819 4.9152 7.26945 4.89925 7.34514 4.86804C7.42082 4.83682 7.4894 4.79096 7.5468 4.73318L8.5369 3.67713L8.90566 3.26817L8.85219 4.3333V11.2566C8.8565 11.4224 8.92607 11.5799 9.04618 11.696C9.16629 11.812 9.3275 11.8774 9.49566 11.8783ZM5.4615 17.9153H13.5372C15.0767 17.9153 15.8327 17.1683 15.8327 15.6778V8.85447C15.8327 7.3622 15.0767 6.62606 13.5372 6.62606H11.6012V7.89839H13.5188C14.1585 7.89839 14.5365 8.24556 14.5365 8.91082V15.616C14.5365 16.2904 14.1585 16.6284 13.5188 16.6284H5.47994C4.8254 16.623 4.45665 16.2904 4.45665 15.616V8.91627C4.45665 8.25102 4.8254 7.89839 5.47994 7.89839H7.40668V6.62606H5.4615C3.93118 6.62606 3.16602 7.36886 3.16602 8.85447V15.6778C3.16602 17.1707 3.93118 17.9165 5.4615 17.9153Z" fill="white"/>
<path fill-rule="evenodd" clip-rule="evenodd" d="M40.3871 2.5H32.8871C32.1371 2.5 31.5234 3.11364 31.5234 3.86364V12.7273C31.5234 13.1023 31.8303 13.4091 32.2053 13.4091C32.5803 13.4091 32.8871 13.1023 32.8871 12.7273V4.54545C32.8871 4.17045 33.1939 3.86364 33.5689 3.86364H40.3871C40.7621 3.86364 41.0689 3.55682 41.0689 3.18182C41.0689 2.80682 40.7621 2.5 40.3871 2.5ZM43.1146 5.22754H35.6146C34.8646 5.22754 34.251 5.84118 34.251 6.59118V16.1366C34.251 16.8866 34.8646 17.5003 35.6146 17.5003H43.1146C43.8646 17.5003 44.4782 16.8866 44.4782 16.1366V6.59118C44.4782 5.84118 43.8646 5.22754 43.1146 5.22754ZM36.2951 16.1364H42.4315C42.8065 16.1364 43.1133 15.8296 43.1133 15.4546V7.27274C43.1133 6.89774 42.8065 6.59092 42.4315 6.59092H36.2951C35.9201 6.59092 35.6133 6.89774 35.6133 7.27274V15.4546C35.6133 15.8296 35.9201 16.1364 36.2951 16.1364Z" fill="white"/>
<path d="M65 4.30078V10.0008M65 15.7008V10.0008M65 10.0008H71M65 10.0008H59" stroke="white" stroke-width="1.2" stroke-linecap="round" stroke-linejoin="round"/>
<path d="M98.0937 12.1797V15.2409C98.0937 15.6468 97.9511 16.0361 97.6971 16.3232C97.4432 16.6102 97.0987 16.7715 96.7396 16.7715H87.2604C86.9013 16.7715 86.5568 16.6102 86.3029 16.3232C86.0489 16.0361 85.9062 15.6468 85.9062 15.2409V12.1797" stroke="white" stroke-width="1.6" stroke-linecap="round"/>
<path d="M92.0128 2.48047C91.853 2.48087 91.6996 2.54599 91.5852 2.66202C91.4708 2.77806 91.4042 2.93589 91.3997 3.1021L91.3997 10.8171L91.4503 11.8822L91.0923 11.4733L90.149 10.4172C90.0963 10.3597 90.0328 10.3139 89.9626 10.2827C89.8923 10.2514 89.8167 10.2354 89.7403 10.2355C89.6682 10.2297 89.5957 10.2395 89.5274 10.2643C89.4591 10.2891 89.3965 10.3284 89.3435 10.3796C89.2905 10.4308 89.2483 10.4929 89.2195 10.5619C89.1906 10.631 89.1759 10.7055 89.1761 10.7807C89.1755 10.8607 89.1921 10.9397 89.2248 11.0121C89.2574 11.0844 89.3053 11.1482 89.3647 11.1988L91.5691 13.3909C91.6237 13.4577 91.6917 13.5114 91.7684 13.5482C91.845 13.5849 91.9284 13.6038 92.0128 13.6035C92.0958 13.6031 92.1777 13.5838 92.2528 13.5471C92.3279 13.5104 92.3944 13.457 92.4477 13.3909L94.6573 11.1988C94.7132 11.1459 94.7576 11.0813 94.7877 11.0092C94.8178 10.9372 94.8329 10.8593 94.832 10.7807C94.8321 10.7063 94.8176 10.6326 94.7893 10.5642C94.761 10.4958 94.7196 10.4342 94.6676 10.3831C94.6155 10.332 94.554 10.2926 94.4867 10.2672C94.4195 10.2418 94.3479 10.231 94.2765 10.2355C94.1988 10.2352 94.1218 10.2511 94.0501 10.2824C93.9784 10.3136 93.9135 10.3594 93.8591 10.4172L92.9211 11.4733L92.5717 11.8822L92.6224 10.8171L92.6224 3.1021C92.6183 2.93637 92.5524 2.77881 92.4386 2.66277C92.3248 2.54674 92.1721 2.48136 92.0128 2.48047Z" fill="white"/>
<path d="M120.992 17.6543C125.377 17.6543 128.996 14.0334 128.996 9.6543C128.996 5.27519 125.369 1.6543 120.984 1.6543C116.608 1.6543 112.996 5.27519 112.996 9.6543C112.996 14.0334 116.615 17.6543 120.992 17.6543ZM120.992 16.0605C117.443 16.0605 114.605 13.2056 114.605 9.6543C114.605 6.10304 117.443 3.25584 120.984 3.25584C124.534 3.25584 127.388 6.10304 127.395 9.6543C127.403 13.2056 124.542 16.0605 120.992 16.0605ZM117.095 10.6292H120.984C121.34 10.6292 121.611 10.3584 121.611 10.0102V4.95024C121.611 4.60207 121.34 4.33128 120.984 4.33128C120.644 4.33128 120.374 4.60207 120.374 4.95024V9.39124H117.095C116.747 9.39124 116.476 9.66203 116.476 10.0102C116.476 10.3584 116.747 10.6292 117.095 10.6292Z" fill="white"/>
<circle cx="144" cy="10" r="1.5" fill="white"/>
<circle cx="151" cy="10" r="1.5" fill="white"/>
<circle cx="158" cy="10" r="1.5" fill="white"/>
</svg>
