<svg width="159" height="19" viewBox="0 0 159 19" fill="none" xmlns="http://www.w3.org/2000/svg">
<path d="M9.49566 11.3783C9.66432 11.3779 9.8262 11.3127 9.947 11.1967C10.0678 11.0807 10.138 10.9228 10.1428 10.7566V3.8333L10.0894 2.76817L10.4673 3.17713L11.463 4.23318C11.5186 4.29069 11.5856 4.33646 11.6598 4.36771C11.7339 4.39895 11.8137 4.41502 11.8944 4.41494C11.9705 4.42071 12.047 4.41088 12.1191 4.38607C12.1912 4.36127 12.2573 4.32202 12.3132 4.27079C12.3692 4.21957 12.4138 4.15749 12.4442 4.08845C12.4746 4.01941 12.4902 3.94492 12.4899 3.86965C12.4906 3.78972 12.473 3.71067 12.4386 3.63832C12.4041 3.56597 12.3536 3.50216 12.2908 3.4516L9.96398 1.25954C9.90631 1.19264 9.83453 1.13896 9.75364 1.10223C9.67276 1.0655 9.58472 1.04661 9.49566 1.04688C9.40806 1.04732 9.32161 1.06657 9.24232 1.1033C9.16304 1.14002 9.09282 1.19334 9.03656 1.25954L6.7042 3.4516C6.64526 3.50449 6.59835 3.56909 6.56657 3.64115C6.53479 3.7132 6.51886 3.79108 6.51982 3.86965C6.51969 3.9441 6.53502 4.01778 6.56487 4.08617C6.59472 4.15455 6.63845 4.21618 6.69338 4.26727C6.74831 4.31836 6.81328 4.35782 6.88426 4.38321C6.95525 4.40861 7.03076 4.4194 7.10614 4.41494C7.18819 4.4152 7.26945 4.39925 7.34514 4.36804C7.42082 4.33682 7.4894 4.29096 7.5468 4.23318L8.5369 3.17713L8.90566 2.76817L8.85219 3.8333V10.7566C8.8565 10.9224 8.92607 11.0799 9.04618 11.196C9.16629 11.312 9.3275 11.3774 9.49566 11.3783ZM5.4615 17.4153H13.5372C15.0767 17.4153 15.8327 16.6683 15.8327 15.1778V8.35447C15.8327 6.8622 15.0767 6.12606 13.5372 6.12606H11.6012V7.39839H13.5188C14.1585 7.39839 14.5365 7.74556 14.5365 8.41082V15.116C14.5365 15.7904 14.1585 16.1284 13.5188 16.1284H5.47994C4.8254 16.123 4.45665 15.7904 4.45665 15.116V8.41627C4.45665 7.75102 4.8254 7.39839 5.47994 7.39839H7.40668V6.12606H5.4615C3.93118 6.12606 3.16602 6.86886 3.16602 8.35447V15.1778C3.16602 16.6707 3.93118 17.4165 5.4615 17.4153Z" fill="white"/>
<path fill-rule="evenodd" clip-rule="evenodd" d="M40.3871 2H32.8871C32.1371 2 31.5234 2.61364 31.5234 3.36364V12.2273C31.5234 12.6023 31.8303 12.9091 32.2053 12.9091C32.5803 12.9091 32.8871 12.6023 32.8871 12.2273V4.04545C32.8871 3.67045 33.1939 3.36364 33.5689 3.36364H40.3871C40.7621 3.36364 41.0689 3.05682 41.0689 2.68182C41.0689 2.30682 40.7621 2 40.3871 2ZM43.1146 4.72754H35.6146C34.8646 4.72754 34.251 5.34118 34.251 6.09118V15.6366C34.251 16.3866 34.8646 17.0003 35.6146 17.0003H43.1146C43.8646 17.0003 44.4782 16.3866 44.4782 15.6366V6.09118C44.4782 5.34118 43.8646 4.72754 43.1146 4.72754ZM36.2951 15.6364H42.4315C42.8065 15.6364 43.1133 15.3296 43.1133 14.9546V6.77274C43.1133 6.39774 42.8065 6.09092 42.4315 6.09092H36.2951C35.9201 6.09092 35.6133 6.39774 35.6133 6.77274V14.9546C35.6133 15.3296 35.9201 15.6364 36.2951 15.6364Z" fill="white"/>
<path d="M65 3.80078V9.50078M65 15.2008V9.50078M65 9.50078H71M65 9.50078H59" stroke="white" stroke-width="1.2" stroke-linecap="round" stroke-linejoin="round"/>
<path d="M98.0937 11.6797V14.7409C98.0937 15.1468 97.9511 15.5361 97.6971 15.8232C97.4432 16.1102 97.0987 16.2715 96.7396 16.2715H87.2604C86.9013 16.2715 86.5568 16.1102 86.3029 15.8232C86.0489 15.5361 85.9062 15.1468 85.9062 14.7409V11.6797" stroke="white" stroke-width="1.6" stroke-linecap="round"/>
<path d="M92.0128 1.98047C91.853 1.98087 91.6996 2.04599 91.5852 2.16202C91.4708 2.27806 91.4042 2.43589 91.3997 2.6021L91.3997 10.3171L91.4503 11.3822L91.0923 10.9733L90.149 9.91722C90.0963 9.8597 90.0328 9.81393 89.9626 9.78269C89.8923 9.75144 89.8167 9.73537 89.7403 9.73545C89.6682 9.72968 89.5957 9.73951 89.5274 9.76432C89.4591 9.78913 89.3965 9.82838 89.3435 9.8796C89.2905 9.93082 89.2483 9.9929 89.2195 10.0619C89.1906 10.131 89.1759 10.2055 89.1761 10.2807C89.1755 10.3607 89.1921 10.4397 89.2248 10.5121C89.2574 10.5844 89.3053 10.6482 89.3647 10.6988L91.5691 12.8909C91.6237 12.9577 91.6917 13.0114 91.7684 13.0482C91.845 13.0849 91.9284 13.1038 92.0128 13.1035C92.0958 13.1031 92.1777 13.0838 92.2528 13.0471C92.3279 13.0104 92.3944 12.957 92.4477 12.8909L94.6573 10.6988C94.7132 10.6459 94.7576 10.5813 94.7877 10.5092C94.8178 10.4372 94.8329 10.3593 94.832 10.2807C94.8321 10.2063 94.8176 10.1326 94.7893 10.0642C94.761 9.99584 94.7196 9.93421 94.6676 9.88312C94.6155 9.83203 94.554 9.79258 94.4867 9.76718C94.4195 9.74178 94.3479 9.73099 94.2765 9.73545C94.1988 9.73519 94.1218 9.75114 94.0501 9.78236C93.9784 9.81358 93.9135 9.85943 93.8591 9.91722L92.9211 10.9733L92.5717 11.3822L92.6224 10.3171L92.6224 2.6021C92.6183 2.43637 92.5524 2.27881 92.4386 2.16277C92.3248 2.04674 92.1721 1.98136 92.0128 1.98047Z" fill="white"/>
<path d="M127.625 3.16602H113.375V6.49935H127.625V3.16602Z" stroke="white"/>
<path d="M122.262 8.54297H118.741C118.017 8.54297 117.43 9.12997 117.43 9.85408C117.43 10.5782 118.017 11.1652 118.741 11.1652H122.262C122.986 11.1652 123.573 10.5782 123.573 9.85408C123.573 9.12997 122.986 8.54297 122.262 8.54297Z" stroke="white"/>
<path d="M126.779 6.5H114.223V15.8333H126.779V6.5Z" stroke="white"/>
<path d="M151.083 7.91667L150.845 13.4583M148.154 13.4583L147.916 7.91667M144.749 4.75L145.541 16.625H153.458L154.249 4.75M144.749 4.75H147.124M144.749 4.75H143.166M154.249 4.75H155.833M154.249 4.75H151.874M147.124 4.75V2.375H151.874V4.75M147.124 4.75H151.874" stroke="white" stroke-linecap="square" stroke-linejoin="round"/>
</svg>
