<svg width="96" height="42" viewBox="0 0 96 42" fill="none" xmlns="http://www.w3.org/2000/svg">
<path d="M55.8455 32.8378V39.835H52.4195V33.1339C52.4195 31.9941 51.8719 31.2646 50.7754 31.2646C49.679 31.2646 48.9946 32.0618 48.9946 33.4067V39.8339H45.5687V33.1328C45.5687 31.9931 45.021 31.2635 43.9245 31.2635C42.8281 31.2635 42.1437 32.0607 42.1437 33.4056V39.8329H38.7178V28.4374H42.1437V29.4862C42.6692 28.7112 43.6735 28.1191 45.2042 28.1191C46.5517 28.1191 47.556 28.6668 48.1959 29.6237C48.8357 28.7123 49.8856 28.1191 51.5074 28.1191C54.1336 28.1191 55.8466 29.9884 55.8466 32.8368L55.8455 32.8378ZM68.0186 28.4384V39.8339H64.5927V38.7629C63.9761 39.6066 62.8341 40.1532 61.3277 40.1532C59.0215 40.1532 57.0574 38.5123 57.0574 35.4356V28.4384H60.4834V34.9344C60.4834 36.348 61.3743 37.0089 62.4697 37.0089C63.7261 37.0089 64.5937 36.2793 64.5937 34.6617V28.4395H68.0197L68.0186 28.4384ZM78.2955 36.4157C78.2955 39.0367 76.0115 40.1532 73.5453 40.1532C71.2613 40.1532 69.5261 39.2873 68.6352 37.4413L71.6035 35.7549C71.9001 36.6208 72.54 37.0998 73.5443 37.0998C74.3663 37.0998 74.7774 36.8492 74.7774 36.3935C74.7774 35.1396 69.1596 35.8004 69.1596 31.8577C69.1596 29.3731 71.2603 28.1202 73.6354 28.1202C75.485 28.1202 77.1291 28.9407 78.0889 30.5594L75.1661 32.1316C74.8462 31.5395 74.3896 31.1293 73.6364 31.1293C73.0421 31.1293 72.6777 31.3566 72.6777 31.7679C72.6777 33.0673 78.2955 32.2013 78.2955 36.4168V36.4157ZM79.0264 28.4384H82.4524V39.8339H79.0264V28.4384ZM83.4111 34.1362C83.4111 30.7402 85.9917 28.1191 89.4633 28.1191C91.6784 28.1191 93.6424 29.2822 94.6245 31.0362L91.6328 32.7681C91.2451 31.9698 90.422 31.4919 89.4177 31.4919C87.9336 31.4919 86.8371 32.5629 86.8371 34.1362C86.8371 35.7094 87.9336 36.7794 89.4177 36.7794C90.422 36.7794 91.2674 36.3005 91.6328 35.5033L94.6245 37.2129C93.6424 38.9902 91.7017 40.1532 89.4633 40.1532C85.9917 40.1532 83.4111 37.5322 83.4111 34.1362Z" fill="url(#paint0_linear_7106_568265)"/>
<path d="M28.0803 1.22679V25.9949H20.6351V23.6667C18.9973 25.5498 16.565 26.6885 13.2397 26.6885C6.73732 26.6885 1.37695 20.9918 1.37695 13.6108C1.37695 6.22989 6.73732 0.533203 13.2397 0.533203C16.565 0.533203 18.9973 1.6719 20.6351 3.55494V1.22679H28.0803ZM20.6351 13.6108C20.6351 9.89552 18.153 7.56736 14.7291 7.56736C11.3053 7.56736 8.82214 9.89552 8.82214 13.6108C8.82214 17.3262 11.3042 19.6543 14.7291 19.6543C18.154 19.6543 20.6351 17.3262 20.6351 13.6108Z" fill="#231F20"/>
<path d="M56.1642 13.6117C56.1642 20.9927 50.8039 26.6894 44.3015 26.6894C40.9762 26.6894 38.5439 25.5507 36.9061 23.6676V39.8368H29.4609V1.22874H36.9061V3.55689C38.5439 1.67386 40.9762 0.535156 44.3015 0.535156C50.8039 0.535156 56.1642 6.23184 56.1642 13.6128V13.6117ZM48.7191 13.6117C48.7191 9.89642 46.237 7.56826 42.8121 7.56826C39.3871 7.56826 36.9061 9.89642 36.9061 13.6117C36.9061 17.3271 39.3882 19.6552 42.8121 19.6552C46.2359 19.6552 48.7191 17.3271 48.7191 13.6117Z" fill="#231F20"/>
<path d="M94.6252 10.7868V25.9949H87.18V11.4318C87.18 8.95453 85.9893 7.36965 83.6068 7.36965C81.2243 7.36965 79.7359 9.10361 79.7359 12.026V25.9949H72.2907V11.4318C72.2907 8.95453 71.1 7.36965 68.7175 7.36965C66.335 7.36965 64.8466 9.10361 64.8466 12.026V25.9949H57.4014V1.22679H64.8466V3.50525C65.9885 1.82098 68.1719 0.533203 71.4972 0.533203C74.4253 0.533203 76.6086 1.7216 77.9996 3.80235C79.3895 1.82098 81.6724 0.533203 85.1969 0.533203C90.9047 0.533203 94.6273 4.59532 94.6273 10.7868H94.6252Z" fill="#231F20"/>
<path d="M21.8074 39.7919C25.2008 39.7919 27.9517 37.0464 27.9517 33.6596C27.9517 30.2729 25.2008 27.5273 21.8074 27.5273C18.414 27.5273 15.6631 30.2729 15.6631 33.6596C15.6631 37.0464 18.414 39.7919 21.8074 39.7919Z" fill="#CC1E3C"/>
<path d="M25.4222 33.6588L19.3955 30.1855V37.132L25.4222 33.6588Z" fill="white"/>
<defs>
<linearGradient id="paint0_linear_7106_568265" x1="38.7178" y1="34.1372" x2="94.6234" y2="34.1372" gradientUnits="userSpaceOnUse">
<stop offset="0.66" stop-color="#CF4827"/>
<stop offset="0.69" stop-color="#CE422A"/>
<stop offset="0.79" stop-color="#CD2F34"/>
<stop offset="0.89" stop-color="#CC233A"/>
<stop offset="1" stop-color="#CC1E3C"/>
</linearGradient>
</defs>
</svg>
