<svg width="210" height="48" viewBox="0 0 210 48" fill="none" xmlns="http://www.w3.org/2000/svg">
<path d="M10.1729 15.6669C10.7126 15.6427 11.1729 16.1427 11.1729 16.6669V16.6913C11.1885 17.2989 11.1729 17.9117 11.1729 18.5233V31.6835C11.1726 32.2434 10.7125 32.6592 10.1729 32.6835C9.63315 32.7077 9.17308 32.2075 9.17285 31.6835V31.659C9.15723 31.0513 9.17285 30.4387 9.17285 29.827V16.6669C9.17285 16.1067 9.63301 15.6903 10.1729 15.6669ZM6.3623 18.0917C6.90204 18.0676 7.3623 18.5675 7.3623 19.0917V28.912C7.36211 29.4719 6.90193 29.8877 6.3623 29.912C5.82259 29.9362 5.36251 29.4361 5.3623 28.912V19.0917C5.3623 18.5276 5.82246 18.1151 6.3623 18.0917ZM13.6357 18.0917C14.1756 18.0674 14.6357 18.5674 14.6357 19.0917V28.912C14.6355 29.472 14.1755 29.8878 13.6357 29.912C13.0961 29.9361 12.636 29.436 12.6357 28.912V19.0917C12.6357 18.5276 13.0959 18.1151 13.6357 18.0917ZM2.62695 19.7792C3.16669 19.7551 3.62695 20.255 3.62695 20.7792V27.2235C3.62685 27.7835 3.16663 28.1992 2.62695 28.2235C2.08718 28.2477 1.62707 27.7476 1.62695 27.2235V20.7792C1.62695 20.2198 2.08319 19.8034 2.62695 19.7792ZM17.3691 19.7792C17.909 19.7549 18.3691 20.2549 18.3691 20.7792V27.2235C18.369 27.7836 17.9089 28.1993 17.3691 28.2235C16.8295 28.2474 16.3693 27.7475 16.3691 27.2235V20.7792C16.3691 20.2199 16.8295 19.8036 17.3691 19.7792Z" fill="white"/>
<path d="M41.9911 33.4203C46.8143 33.4203 50.7953 29.4373 50.7953 24.6203C50.7953 19.8033 46.8058 15.8203 41.9826 15.8203C37.1679 15.8203 33.1953 19.8033 33.1953 24.6203C33.1953 29.4373 37.1764 33.4203 41.9911 33.4203ZM41.9911 31.6671C38.0866 31.6671 34.9647 28.5267 34.9647 24.6203C34.9647 20.7139 38.0866 17.582 41.9826 17.582C45.887 17.582 49.026 20.7139 49.0345 24.6203C49.043 28.5267 45.8956 31.6671 41.9911 31.6671ZM37.7038 25.6927H41.9826C42.3739 25.6927 42.6716 25.3948 42.6716 25.0118V19.4458C42.6716 19.0629 42.3739 18.765 41.9826 18.765C41.6083 18.765 41.3105 19.0629 41.3105 19.4458V24.331H37.7038C37.321 24.331 37.0232 24.6288 37.0232 25.0118C37.0232 25.3948 37.321 25.6927 37.7038 25.6927Z" fill="white"/>
<path d="M70.7172 31.5351C70.3805 31.6343 70.125 31.7039 69.9422 31.7445C69.8266 31.7703 69.732 31.7875 69.6438 31.7945C69.5492 31.8023 69.4617 31.8015 69.3555 31.7804C69.2305 31.7562 69.1086 31.7093 68.9844 31.6156C68.7719 31.4554 68.6375 31.2031 68.6375 30.9218C68.6375 30.7007 68.8289 30.0578 69.5984 27.6116C68.8828 26.5046 68.5 25.2632 68.5 23.9734C68.5 19.6352 72.789 16.1992 78 16.1992C83.211 16.1992 87.5 19.6352 87.5 23.9734C87.5 28.3124 83.211 31.7484 78 31.7484C76.3211 31.7484 74.7046 31.3922 73.2804 30.7258C72.1624 31.0914 71.3093 31.3617 70.7172 31.5351Z" stroke="white" stroke-width="1.8"/>
<circle cx="83.4004" cy="17.4004" r="3.6" fill="#CC203C" stroke="#232323" stroke-width="1.2"/>
<rect x="102" y="11.5" width="36" height="25" rx="12.5" fill="#565656"/>
<path d="M120.835 24.6481C122.395 24.6481 123.81 25.1587 124.847 25.8727C125.833 26.5521 126.668 27.5617 126.668 28.648C126.668 29.2442 126.41 29.7383 126.005 30.1056C125.623 30.4523 125.125 30.6772 124.611 30.8303C123.585 31.1375 122.235 31.2363 120.835 31.2363C119.435 31.2363 118.084 31.1375 117.058 30.8303C116.545 30.6772 116.046 30.4523 115.664 30.1056C115.26 29.7392 115.001 29.245 115.001 28.6488C115.001 27.5626 115.836 26.5529 116.822 25.8735C117.86 25.1587 119.274 24.6481 120.835 24.6481ZM115.001 25.4716C115.3 25.4727 115.586 25.5037 115.861 25.5647C114.968 26.31 114.168 27.3839 114.168 28.648C114.168 28.979 114.225 29.2879 114.326 29.572C113.846 29.5456 113.385 29.4855 112.992 29.3686C112.705 29.2829 112.39 29.147 112.134 28.9156C111.987 28.7858 111.87 28.6269 111.79 28.4492C111.709 28.2715 111.668 28.0791 111.668 27.8846C111.668 27.1393 112.223 26.5266 112.757 26.1584C113.418 25.7108 114.2 25.4714 115.001 25.4716ZM115.418 20.5304C115.971 20.5304 116.5 20.7474 116.891 21.1335C117.282 21.5196 117.501 22.0432 117.501 22.5893C117.501 23.1353 117.282 23.659 116.891 24.0451C116.5 24.4312 115.971 24.6481 115.418 24.6481C114.865 24.6481 114.336 24.4312 113.945 24.0451C113.554 23.659 113.335 23.1353 113.335 22.5893C113.335 22.0432 113.554 21.5196 113.945 21.1335C114.336 20.7474 114.865 20.5304 115.418 20.5304ZM120.835 17.2363C121.719 17.2363 122.567 17.5834 123.192 18.2012C123.817 18.8189 124.168 19.6568 124.168 20.5304C124.168 21.4041 123.817 22.242 123.192 22.8597C122.567 23.4775 121.719 23.8246 120.835 23.8246C119.951 23.8246 119.103 23.4775 118.478 22.8597C117.852 22.242 117.501 21.4041 117.501 20.5304C117.501 19.6568 117.852 18.8189 118.478 18.2012C119.103 17.5834 119.951 17.2363 120.835 17.2363Z" fill="white"/>
<circle cx="131" cy="34" r="5" fill="#00FFB7"/>
<rect x="150" y="10" width="60" height="28" rx="4" fill="#CC203C"/>
<path d="M165.768 20.16V28.5H164.4V20.16H165.768ZM170.78 21.78C171.3 21.78 171.764 21.888 172.172 22.104C172.588 22.32 172.912 22.64 173.144 23.064C173.376 23.488 173.492 24 173.492 24.6V28.5H172.136V24.804C172.136 24.212 171.988 23.76 171.692 23.448C171.396 23.128 170.992 22.968 170.48 22.968C169.968 22.968 169.56 23.128 169.256 23.448C168.96 23.76 168.812 24.212 168.812 24.804V28.5H167.444V21.888H168.812V22.644C169.036 22.372 169.32 22.16 169.664 22.008C170.016 21.856 170.388 21.78 170.78 21.78ZM177.673 27.276L179.545 21.888H180.997L178.477 28.5H176.845L174.337 21.888H175.801L177.673 27.276ZM182.607 21.012C182.359 21.012 182.151 20.928 181.983 20.76C181.815 20.592 181.731 20.384 181.731 20.136C181.731 19.888 181.815 19.68 181.983 19.512C182.151 19.344 182.359 19.26 182.607 19.26C182.847 19.26 183.051 19.344 183.219 19.512C183.387 19.68 183.471 19.888 183.471 20.136C183.471 20.384 183.387 20.592 183.219 20.76C183.051 20.928 182.847 21.012 182.607 21.012ZM183.279 21.888V28.5H181.911V21.888H183.279ZM186.551 23.004V26.664C186.551 26.912 186.607 27.092 186.719 27.204C186.839 27.308 187.039 27.36 187.319 27.36H188.159V28.5H187.079C186.463 28.5 185.991 28.356 185.663 28.068C185.335 27.78 185.171 27.312 185.171 26.664V23.004H184.391V21.888H185.171V20.244H186.551V21.888H188.159V23.004H186.551ZM195.36 25.032C195.36 25.28 195.344 25.504 195.312 25.704H190.26C190.3 26.232 190.496 26.656 190.848 26.976C191.2 27.296 191.632 27.456 192.144 27.456C192.88 27.456 193.4 27.148 193.704 26.532H195.18C194.98 27.14 194.616 27.64 194.088 28.032C193.568 28.416 192.92 28.608 192.144 28.608C191.512 28.608 190.944 28.468 190.44 28.188C189.944 27.9 189.552 27.5 189.264 26.988C188.984 26.468 188.844 25.868 188.844 25.188C188.844 24.508 188.98 23.912 189.252 23.4C189.532 22.88 189.92 22.48 190.416 22.2C190.92 21.92 191.496 21.78 192.144 21.78C192.768 21.78 193.324 21.916 193.812 22.188C194.3 22.46 194.68 22.844 194.952 23.34C195.224 23.828 195.36 24.392 195.36 25.032ZM193.932 24.6C193.924 24.096 193.744 23.692 193.392 23.388C193.04 23.084 192.604 22.932 192.084 22.932C191.612 22.932 191.208 23.084 190.872 23.388C190.536 23.684 190.336 24.088 190.272 24.6H193.932Z" fill="white"/>
</svg>
