<svg width="176" height="48" viewBox="0 0 176 48" fill="none" xmlns="http://www.w3.org/2000/svg">
<path d="M10.1729 15.6669C10.7126 15.6427 11.1729 16.1427 11.1729 16.6669V16.6903C11.1885 17.298 11.1729 17.9107 11.1729 18.5223V31.6825C11.1729 32.2426 10.7126 32.6582 10.1729 32.6825C9.63301 32.7067 9.17285 32.2067 9.17285 31.6825V31.659C9.15723 31.0513 9.17285 30.4386 9.17285 29.827V16.6669C9.17285 16.1067 9.63301 15.6903 10.1729 15.6669ZM6.3623 18.0907C6.90186 18.0667 7.36203 18.5667 7.3623 19.0907V28.911C7.3623 29.4711 6.90203 29.8867 6.3623 29.911C5.82246 29.9352 5.3623 29.4352 5.3623 28.911V19.0907C5.36256 18.5269 5.82262 18.1141 6.3623 18.0907ZM13.6357 18.0907C14.1754 18.0665 14.6355 18.5666 14.6357 19.0907V28.911C14.6357 29.4712 14.1756 29.8868 13.6357 29.911C13.0959 29.9352 12.6357 29.4352 12.6357 28.911V19.0907C12.636 18.5269 13.0961 18.1141 13.6357 18.0907ZM2.62695 19.7782C3.16654 19.7541 3.62672 20.2542 3.62695 20.7782V27.2235C3.62677 27.7834 3.16658 28.1992 2.62695 28.2235C2.08723 28.2477 1.62715 27.7476 1.62695 27.2235V20.7782C1.62717 20.219 2.08332 19.8024 2.62695 19.7782ZM17.3691 19.7782C17.9088 19.754 18.3689 20.2541 18.3691 20.7782V27.2235C18.369 27.7835 17.9089 28.1993 17.3691 28.2235C16.8296 28.2474 16.3693 27.7475 16.3691 27.2235V20.7782C16.3694 20.2191 16.8296 19.8026 17.3691 19.7782Z" fill="white"/>
<path d="M36.7172 31.5351C36.3805 31.6343 36.125 31.7039 35.9422 31.7445C35.8266 31.7703 35.732 31.7875 35.6438 31.7945C35.5492 31.8023 35.4617 31.8015 35.3555 31.7804C35.2305 31.7562 35.1086 31.7093 34.9844 31.6156C34.7719 31.4554 34.6375 31.2031 34.6375 30.9218C34.6375 30.7007 34.8289 30.0578 35.5984 27.6116C34.8828 26.5046 34.5 25.2632 34.5 23.9734C34.5 19.6352 38.789 16.1992 44 16.1992C49.211 16.1992 53.5 19.6352 53.5 23.9734C53.5 28.3124 49.211 31.7484 44 31.7484C42.3211 31.7484 40.7046 31.3922 39.2804 30.7258C38.1624 31.0914 37.3093 31.3617 36.7172 31.5351Z" stroke="white" stroke-width="1.8"/>
<circle cx="49.4004" cy="17.4004" r="3.6" fill="#CC203C" stroke="#232323" stroke-width="1.2"/>
<rect x="68" y="11.5" width="36" height="25" rx="12.5" fill="#565656"/>
<path d="M86.8346 24.6481C88.3955 24.6481 89.8096 25.1587 90.8471 25.8727C91.833 26.5521 92.668 27.5617 92.668 28.648C92.668 29.2442 92.4105 29.7383 92.0046 30.1056C91.623 30.4523 91.1246 30.6772 90.6113 30.8303C89.5855 31.1375 88.2346 31.2363 86.8346 31.2363C85.4346 31.2363 84.0838 31.1375 83.058 30.8303C82.5446 30.6772 82.0463 30.4523 81.6638 30.1056C81.2596 29.7392 81.0013 29.245 81.0013 28.6488C81.0013 27.5626 81.8363 26.5529 82.8221 25.8735C83.8596 25.1587 85.2738 24.6481 86.8346 24.6481ZM81.0013 25.4716C81.2996 25.4727 81.5863 25.5037 81.8613 25.5647C80.968 26.31 80.168 27.3839 80.168 28.648C80.168 28.979 80.2246 29.2879 80.3263 29.572C79.8463 29.5456 79.3846 29.4855 78.9921 29.3686C78.7046 29.2829 78.3896 29.147 78.1338 28.9156C77.9872 28.7858 77.8699 28.6269 77.7896 28.4492C77.7093 28.2715 77.6679 28.0791 77.668 27.8846C77.668 27.1393 78.223 26.5266 78.7571 26.1584C79.4179 25.7108 80.2002 25.4714 81.0013 25.4716ZM81.418 20.5304C81.9705 20.5304 82.5004 20.7474 82.8911 21.1335C83.2818 21.5196 83.5013 22.0432 83.5013 22.5893C83.5013 23.1353 83.2818 23.659 82.8911 24.0451C82.5004 24.4312 81.9705 24.6481 81.418 24.6481C80.8654 24.6481 80.3355 24.4312 79.9448 24.0451C79.5541 23.659 79.3346 23.1353 79.3346 22.5893C79.3346 22.0432 79.5541 21.5196 79.9448 21.1335C80.3355 20.7474 80.8654 20.5304 81.418 20.5304ZM86.8346 17.2363C87.7187 17.2363 88.5665 17.5834 89.1917 18.2012C89.8168 18.8189 90.168 19.6568 90.168 20.5304C90.168 21.4041 89.8168 22.242 89.1917 22.8597C88.5665 23.4775 87.7187 23.8246 86.8346 23.8246C85.9506 23.8246 85.1027 23.4775 84.4776 22.8597C83.8525 22.242 83.5013 21.4041 83.5013 20.5304C83.5013 19.6568 83.8525 18.8189 84.4776 18.2012C85.1027 17.5834 85.9506 17.2363 86.8346 17.2363Z" fill="white"/>
<circle cx="97" cy="34" r="5" fill="#00FFB7"/>
<rect x="116" y="10" width="60" height="28" rx="4" fill="#CC203C"/>
<path d="M131.768 20.16V28.5H130.4V20.16H131.768ZM136.78 21.78C137.3 21.78 137.764 21.888 138.172 22.104C138.588 22.32 138.912 22.64 139.144 23.064C139.376 23.488 139.492 24 139.492 24.6V28.5H138.136V24.804C138.136 24.212 137.988 23.76 137.692 23.448C137.396 23.128 136.992 22.968 136.48 22.968C135.968 22.968 135.56 23.128 135.256 23.448C134.96 23.76 134.812 24.212 134.812 24.804V28.5H133.444V21.888H134.812V22.644C135.036 22.372 135.32 22.16 135.664 22.008C136.016 21.856 136.388 21.78 136.78 21.78ZM143.673 27.276L145.545 21.888H146.997L144.477 28.5H142.845L140.337 21.888H141.801L143.673 27.276ZM148.607 21.012C148.359 21.012 148.151 20.928 147.983 20.76C147.815 20.592 147.731 20.384 147.731 20.136C147.731 19.888 147.815 19.68 147.983 19.512C148.151 19.344 148.359 19.26 148.607 19.26C148.847 19.26 149.051 19.344 149.219 19.512C149.387 19.68 149.471 19.888 149.471 20.136C149.471 20.384 149.387 20.592 149.219 20.76C149.051 20.928 148.847 21.012 148.607 21.012ZM149.279 21.888V28.5H147.911V21.888H149.279ZM152.551 23.004V26.664C152.551 26.912 152.607 27.092 152.719 27.204C152.839 27.308 153.039 27.36 153.319 27.36H154.159V28.5H153.079C152.463 28.5 151.991 28.356 151.663 28.068C151.335 27.78 151.171 27.312 151.171 26.664V23.004H150.391V21.888H151.171V20.244H152.551V21.888H154.159V23.004H152.551ZM161.36 25.032C161.36 25.28 161.344 25.504 161.312 25.704H156.26C156.3 26.232 156.496 26.656 156.848 26.976C157.2 27.296 157.632 27.456 158.144 27.456C158.88 27.456 159.4 27.148 159.704 26.532H161.18C160.98 27.14 160.616 27.64 160.088 28.032C159.568 28.416 158.92 28.608 158.144 28.608C157.512 28.608 156.944 28.468 156.44 28.188C155.944 27.9 155.552 27.5 155.264 26.988C154.984 26.468 154.844 25.868 154.844 25.188C154.844 24.508 154.98 23.912 155.252 23.4C155.532 22.88 155.92 22.48 156.416 22.2C156.92 21.92 157.496 21.78 158.144 21.78C158.768 21.78 159.324 21.916 159.812 22.188C160.3 22.46 160.68 22.844 160.952 23.34C161.224 23.828 161.36 24.392 161.36 25.032ZM159.932 24.6C159.924 24.096 159.744 23.692 159.392 23.388C159.04 23.084 158.604 22.932 158.084 22.932C157.612 22.932 157.208 23.084 156.872 23.388C156.536 23.684 156.336 24.088 156.272 24.6H159.932Z" fill="white"/>
</svg>
