<svg width="17" height="16" viewBox="0 0 17 16" fill="none" xmlns="http://www.w3.org/2000/svg">
<path d="M3.30984 13.0247C3.07354 13.0908 2.89427 13.1372 2.76598 13.1643C2.68484 13.1815 2.6185 13.1929 2.55654 13.1976C2.49021 13.2028 2.4288 13.2023 2.35424 13.1883C2.26652 13.1721 2.18099 13.1409 2.09382 13.0784C1.9447 12.9716 1.8504 12.8034 1.8504 12.6158C1.8504 12.4684 1.98472 12.0398 2.52474 10.409C2.02255 9.67102 1.75391 8.84345 1.75391 7.98358C1.75391 5.09145 4.76373 2.80078 8.42057 2.80078C12.0774 2.80078 15.0872 5.09145 15.0872 7.98358C15.0872 10.8762 12.0774 13.1669 8.42057 13.1669C7.2424 13.1669 6.10801 12.9294 5.10857 12.4851C4.32404 12.7289 3.72534 12.9091 3.30984 13.0247Z" stroke="white" stroke-width="1.26316"/>
</svg>
