<svg width="20" height="20" viewBox="0 0 20 20" fill="none" xmlns="http://www.w3.org/2000/svg">
<path d="M9.99902 1.66797C10.4025 1.66797 10.7994 1.69752 11.1875 1.75293L11.5508 3.84375C12.1583 3.99635 12.732 4.23629 13.2559 4.5498L14.9912 3.32812C15.6279 3.80514 16.1937 4.37129 16.6709 5.00781L15.4502 6.74414C15.764 7.26812 16.0045 7.84144 16.1572 8.44922L18.2461 8.8125C18.3016 9.20078 18.333 9.59736 18.333 10.001C18.333 10.4042 18.3014 10.8006 18.2461 11.1885L16.1572 11.5518C16.0046 12.1598 15.7639 12.7326 15.4502 13.2568L16.6709 14.9932C16.1939 15.6296 15.6286 16.1958 14.9922 16.6729L13.2568 15.4512C12.7326 15.7651 12.1589 16.0054 11.5508 16.1582L11.1875 18.248C10.7993 18.3035 10.4025 18.335 9.99902 18.335C9.59574 18.3349 9.1995 18.3034 8.81152 18.248L8.44824 16.1582C7.84018 16.0054 7.26637 15.7651 6.74219 15.4512L5.00586 16.6729C4.36955 16.1958 3.80309 15.6305 3.32617 14.9941L4.54883 13.2578C4.23498 12.7335 3.99444 12.1599 3.8418 11.5518L1.75098 11.1885C1.69566 10.8007 1.66602 10.4041 1.66602 10.001C1.66603 9.59744 1.69552 9.20071 1.75098 8.8125L3.8418 8.44922C3.99462 7.84106 4.23479 7.26741 4.54883 6.74316L3.32715 5.00781C3.80428 4.3713 4.37025 3.80515 5.00684 3.32812L6.74219 4.5498C7.26626 4.23602 7.84036 3.99646 8.44824 3.84375L8.81152 1.75293C9.19943 1.69756 9.59582 1.66798 9.99902 1.66797ZM9.99902 6.82715C8.24594 6.82733 6.82431 8.24885 6.82422 10.002C6.82442 11.755 8.24601 13.1756 9.99902 13.1758C11.7522 13.1758 13.1736 11.7551 13.1738 10.002C13.1737 8.24876 11.7522 6.82717 9.99902 6.82715Z" fill="white"/>
</svg>
