<svg width="20" height="20" viewBox="0 0 20 20" fill="none" xmlns="http://www.w3.org/2000/svg">
<path d="M10.1729 1.66699C10.7126 1.64285 11.1729 2.14281 11.1729 2.66699V2.69043C11.1885 3.29811 11.1729 3.91088 11.1729 4.52246V17.6826C11.1729 18.2427 10.7126 18.6583 10.1729 18.6826C9.63301 18.7068 9.17285 18.2068 9.17285 17.6826V17.6592C9.15723 17.0515 9.17285 16.4388 9.17285 15.8271V2.66699C9.17285 2.10683 9.63301 1.69043 10.1729 1.66699ZM6.3623 4.09082C6.90186 4.06679 7.36203 4.56686 7.3623 5.09082V14.9111C7.3623 15.4712 6.90203 15.8868 6.3623 15.9111C5.82246 15.9354 5.3623 15.4354 5.3623 14.9111V5.09082C5.36256 4.527 5.82262 4.11425 6.3623 4.09082ZM13.6357 4.09082C14.1754 4.06661 14.6355 4.56677 14.6357 5.09082V14.9111C14.6357 15.4713 14.1756 15.8869 13.6357 15.9111C13.0959 15.9353 12.6357 15.4353 12.6357 14.9111V5.09082C12.636 4.52702 13.0961 4.11428 13.6357 4.09082ZM2.62695 5.77832C3.16654 5.75428 3.62672 6.25433 3.62695 6.77832V13.2236C3.62677 13.7835 3.16658 14.1993 2.62695 14.2236C2.08723 14.2478 1.62715 13.7477 1.62695 13.2236V6.77832C1.62717 6.21914 2.08332 5.80253 2.62695 5.77832ZM17.3691 5.77832C17.9088 5.75411 18.3689 6.25424 18.3691 6.77832V13.2236C18.369 13.7836 17.9089 14.1994 17.3691 14.2236C16.8296 14.2476 16.3693 13.7476 16.3691 13.2236V6.77832C16.3694 6.21927 16.8296 5.80271 17.3691 5.77832Z" fill="white"/>
</svg>
