<svg width="24" height="24" viewBox="0 0 24 24" fill="none" xmlns="http://www.w3.org/2000/svg">
<g clip-path="url(#clip0_41765_111205)">
<g clip-path="url(#clip1_41765_111205)">
<path d="M21 5C21 3.895 20.105 3 19 3H5C3.895 3 3 3.895 3 5V19C3 20.105 3.895 21 5 21H19C20.105 21 21 20.105 21 19V5ZM19 19H5V5H19V19Z" fill="white"/>
<path fill-rule="evenodd" clip-rule="evenodd" d="M13.25 14.1676C13.259 14.2573 13.2637 14.3483 13.2637 14.4404C13.2637 15.9231 12.0617 17.125 10.5791 17.125C9.09645 17.125 7.89453 15.9231 7.89453 14.4404C7.89453 12.9578 9.09645 11.7559 10.5791 11.7559C10.9337 11.7559 11.2722 11.8246 11.582 11.9495V6.98438H16.5273V8.65625H13.2539L13.25 14.1676Z" fill="white"/>
</g>
</g>
<defs>
<clipPath id="clip0_41765_111205">
<rect width="24" height="24" fill="white"/>
</clipPath>
<clipPath id="clip1_41765_111205">
<rect width="24" height="24" fill="white"/>
</clipPath>
</defs>
</svg>
